<?xml version="1.0" encoding="UTF-8" standalone="no"?>
<!-- Created with Inkscape (http://www.inkscape.org/) -->

<svg
   xmlns:dc="http://purl.org/dc/elements/1.1/"
   xmlns:cc="http://creativecommons.org/ns#"
   xmlns:rdf="http://www.w3.org/1999/02/22-rdf-syntax-ns#"
   xmlns:svg="http://www.w3.org/2000/svg"
   xmlns="http://www.w3.org/2000/svg"
   xmlns:xlink="http://www.w3.org/1999/xlink"
   xmlns:sodipodi="http://sodipodi.sourceforge.net/DTD/sodipodi-0.dtd"
   xmlns:inkscape="http://www.inkscape.org/namespaces/inkscape"
   version="1.1"
   id="svg2"
   width="250"
   height="250"
   viewBox="0 0 250 250"
   sodipodi:docname="rethex.svg"
   inkscape:version="0.92.0 r"
   inkscape:export-filename="/home/lip/code/MinHex/img/howto/rethex.png"
   inkscape:export-xdpi="96"
   inkscape:export-ydpi="96">
  <metadata
     id="metadata8">
    <rdf:RDF>
      <cc:Work
         rdf:about="">
        <dc:format>image/svg+xml</dc:format>
        <dc:type
           rdf:resource="http://purl.org/dc/dcmitype/StillImage" />
        <dc:title></dc:title>
      </cc:Work>
    </rdf:RDF>
  </metadata>
  <defs
     id="defs6">
    <linearGradient
       inkscape:collect="always"
       id="linearGradient4930">
      <stop
         style="stop-color:#000000;stop-opacity:0.44102564"
         offset="0"
         id="stop4926" />
      <stop
         style="stop-color:#000000;stop-opacity:0.15897436"
         offset="1"
         id="stop4928" />
    </linearGradient>
    <linearGradient
       inkscape:collect="always"
       xlink:href="#linearGradient4930"
       id="linearGradient4932"
       x1="107.32819"
       y1="282.78375"
       x2="109.1906"
       y2="1.4278408"
       gradientUnits="userSpaceOnUse" />
  </defs>
  <sodipodi:namedview
     pagecolor="#ffffff"
     bordercolor="#666666"
     borderopacity="1"
     objecttolerance="10"
     gridtolerance="10"
     guidetolerance="10"
     inkscape:pageopacity="0"
     inkscape:pageshadow="2"
     inkscape:window-width="1366"
     inkscape:window-height="713"
     id="namedview4"
     showgrid="false"
     inkscape:zoom="0.88500003"
     inkscape:cx="-3.2931339"
     inkscape:cy="149.57544"
     inkscape:window-x="0"
     inkscape:window-y="27"
     inkscape:window-maximized="1"
     inkscape:current-layer="svg2" />
  <path
     style="fill:url(#linearGradient4932);fill-opacity:1;stroke-width:0.99999988"
     d="m 34.406312,28.516327 a 2.0410505,2.0410505 0 0 0 -1.766029,1.018557 l -9.410187,16.263019 -9.41218,16.261025 a 2.0410505,2.0410505 0 0 0 -0.002,2.043094 l 9.035454,15.647101 9.03346,15.645108 a 2.0410505,2.0410505 0 0 0 1.67434,1.018557 l 16.643731,0.769398 15.537472,0.717575 6.111339,10.374909 6.069482,10.30318 -7.797639,13.60002 -8.38565,14.62655 a 2.0410505,2.0410505 0 0 0 0.01196,2.05306 l 7.546488,12.77481 c 2.065704,3.49732 3.945264,6.78548 5.298088,9.24675 0.676412,1.23064 1.221454,2.25712 1.584642,2.97992 0.10227,0.20353 0.15059,0.31301 0.221253,0.46243 -0.08379,0.17905 -0.151381,0.32832 -0.279057,0.58402 -0.401671,0.80447 -1.001765,1.94569 -1.744103,3.3168 -1.484676,2.74221 -3.544255,6.41553 -5.808364,10.33705 l -8.262023,14.31162 a 2.0410505,2.0410505 0 0 0 -0.0039,2.03312 l 9.376301,16.40654 9.376302,16.40653 a 2.0410505,2.0410505 0 0 0 1.817854,1.02853 l 19.075515,-0.42856 19.077499,-0.42854 a 2.0410505,2.0410505 0 0 0 1.72617,-1.02854 l 7.46477,-13.06982 6.90863,-12.09311 16.90286,-0.71955 18.02906,-0.76941 a 2.0410505,2.0410505 0 0 0 1.68032,-1.01855 l 9.08927,-15.74278 9.08927,-15.74079 a 2.0410505,2.0410505 0 0 0 0.006,-2.02914 l -7.87338,-13.84718 c -2.15698,-3.79368 -4.11934,-7.35371 -5.5333,-10.01416 -0.70698,-1.33021 -1.27664,-2.43744 -1.6584,-3.21911 -0.12523,-0.25644 -0.19272,-0.4095 -0.27308,-0.58602 0.0569,-0.1274 0.0912,-0.21356 0.17143,-0.3827 0.30753,-0.64853 0.77384,-1.56969 1.35144,-2.67097 1.15519,-2.20257 2.76103,-5.13483 4.52669,-8.23815 l 5.87015,-10.31713 h 15.12687 16.31484 a 2.0410505,2.0410505 0 0 0 1.76603,-1.01855 l 9.00755,-15.57334 c 2.49215,-4.30835 4.75622,-8.43836 6.41031,-11.648622 0.82706,-1.605134 1.50034,-2.976114 1.9833,-4.052301 0.24148,-0.538092 0.43523,-1.000629 0.58403,-1.411228 0.1488,-0.410599 0.30696,-0.610719 0.30696,-1.397277 0,-0.786555 -0.15817,-0.986639 -0.30696,-1.397276 -0.14879,-0.410636 -0.34255,-0.873046 -0.58403,-1.411229 -0.48295,-1.076368 -1.15624,-2.448901 -1.9833,-4.054294 -1.65409,-3.210785 -3.91813,-7.340217 -6.41031,-11.648619 L 219.712,57.215304 a 2.0410505,2.0410505 0 0 0 -1.76603,-1.018556 H 199.31894 180.6939 a 2.0410505,2.0410505 0 0 0 -1.774,1.034502 l -8.29196,14.608613 -7.70594,13.574109 h -12.19478 -12.20873 l -7.66807,-13.20735 -8.25808,-14.225905 a 2.0410505,2.0410505 0 0 0 -1.71022,-1.016564 L 104.45748,56.529622 89.177146,56.124989 81.792114,43.32626 73.83302,29.536877 a 2.0410505,2.0410505 0 0 0 -1.768022,-1.02055 H 53.236652 Z m 6.00769,13.309005 h 12.812684 12.808697 l 5.870155,10.317122 c 1.767073,3.105808 3.3741,6.02385 4.530684,8.204264 0.57829,1.090206 1.046143,1.998674 1.355416,2.635091 0.0665,0.136846 0.09056,0.199468 0.141522,0.308955 -0.05224,0.108292 -0.07735,0.169623 -0.145508,0.30497 -0.318301,0.632073 -0.799331,1.535512 -1.395283,2.619144 -1.191904,2.167264 -2.848588,5.067909 -4.670212,8.154432 l -6.08742,10.313135 -12.138961,0.406626 C 47.308319,85.295894 43.960321,85.296773 42.359424,84.977448 40.758528,84.658123 40.825016,84.518911 39.885788,82.98618 36.301716,77.137303 33.352045,72.191775 31.308784,68.626725 30.287154,66.844199 29.4909,65.402498 28.966702,64.391045 28.747531,63.968147 28.607321,63.672972 28.492306,63.42232 c 0.05754,-0.128288 0.09348,-0.216892 0.175407,-0.388688 0.307788,-0.645441 0.773868,-1.562545 1.351431,-2.661003 1.155124,-2.196913 2.760743,-5.126337 4.526696,-8.230175 z m 73.738718,27.602684 5.89606,10.095868 c 1.77149,3.033211 3.38359,5.98146 4.53865,8.254096 0.57754,1.136318 1.04277,2.108354 1.34546,2.808505 0.13374,0.309355 0.22055,0.538075 0.28304,0.713587 -0.062,0.174615 -0.14816,0.403775 -0.28105,0.711594 -0.30087,0.696945 -0.76309,1.66363 -1.33749,2.794553 -1.14875,2.261846 -2.75239,5.194691 -4.51472,8.212221 l -5.8861,10.07395 H 101.70479 89.244919 l -5.959852,-10.79351 -5.999716,-10.87124 5.768497,-10.618103 5.742586,-10.57425 12.701056,-0.404632 z m 97.8153,0.111622 5.94589,10.434724 c 1.78828,3.137734 3.41592,6.090474 4.5865,8.29994 0.5853,1.104733 1.05857,2.026298 1.37137,2.672963 0.0757,0.156282 0.10596,0.232038 0.16145,0.352807 -0.0556,0.120731 -0.0859,0.196569 -0.16145,0.352807 -0.3128,0.646477 -0.78607,1.568463 -1.37137,2.672965 -1.17059,2.209001 -2.79817,5.16013 -4.5865,8.297936 l -5.94788,10.43672 -12.65322,-0.002 -12.64724,-0.002 -4.7958,-8.49727 c -2.95419,-5.234314 -6.00712,-10.763615 -6.63754,-11.999438 0.049,0.09613 -0.12728,-0.933988 0.66973,-3.041717 0.79699,-2.107729 2.33124,-5.161828 4.66622,-9.250726 l 6.09141,-10.665942 12.65721,-0.0299 a 2.0410505,2.0410505 0 0 0 0.002,0 z m -73.48755,27.644541 h 12.22069 12.2127 l 5.87015,10.317121 c 1.7566,3.08736 3.35712,6.10464 4.50279,8.44346 0.57283,1.16939 1.03291,2.17284 1.33348,2.90219 0.14614,0.35455 0.25024,0.63928 0.31095,0.82718 -0.0581,0.17537 -0.15612,0.43468 -0.29501,0.76343 -0.29144,0.68993 -0.74008,1.64028 -1.29959,2.74471 -1.11905,2.20887 -2.68295,5.04906 -4.40112,7.94117 l -5.73462,9.64938 h -12.46784 c -6.22474,0 -9.66267,-0.11484 -11.3895,-0.49433 -1.72685,-0.3795 -1.74106,-0.55789 -2.61715,-1.98928 -1.15013,-1.87911 -4.29033,-7.09921 -6.95649,-11.56091 l -4.23965,-7.09204 6.47211,-11.21607 a 2.0410505,2.0410505 0 0 0 0,-0.002 z m -24.54901,29.219201 5.76053,9.94837 c 1.72645,2.98202 3.29414,5.8898 4.41109,8.1365 0.55846,1.12334 1.0051,2.08553 1.29362,2.77861 0.12804,0.30757 0.21121,0.5352 0.26909,0.7076 -0.0648,0.17369 -0.15937,0.40548 -0.29899,0.7136 -0.31114,0.68666 -0.78559,1.63616 -1.37536,2.74272 -1.17951,2.21311 -2.82037,5.0712 -4.61839,7.99895 a 2.0410505,2.0410505 0 0 0 -0.002,0 l -6.03359,9.83077 -12.14096,0.40662 -12.013384,0.40066 -5.860189,-10.14571 c -3.389459,-5.86783 -6.239989,-10.831 -6.723269,-11.68649 0.02982,-0.0934 0.03332,-0.12141 0.07773,-0.24318 0.224853,-0.61632 0.625478,-1.54856 1.152106,-2.663 1.053256,-2.22887 2.615976,-5.21315 4.4071,-8.35574 l 6.005697,-10.54036 12.840599,-0.0139 z m 49.4867,29.21922 5.62298,9.46801 c 1.68725,2.84004 3.22478,5.64469 4.32339,7.8375 0.5493,1.09639 0.98814,2.04373 1.27369,2.73475 0.28557,0.69102 0.33688,1.42388 0.33688,0.80329 -1e-5,-0.62012 -0.0525,0.1237 -0.33888,0.82519 -0.28633,0.70152 -0.7281,1.66339 -1.27767,2.77663 -1.09915,2.22647 -2.63556,5.07714 -4.32339,7.96706 l -5.62697,9.63144 -12.9821,-0.0299 -12.96219,-0.0299 -5.90205,-10.58022 -5.92197,-10.61613 5.91201,-10.36096 5.90005,-10.33505 12.97614,-0.0459 z m -76.300052,26.90704 h 12.433966 12.453886 l 6.25288,10.45067 6.25086,10.4427 -5.75854,10.60016 -5.75055,10.59019 -13.179444,0.34284 -13.133603,0.34485 -6.009681,-10.56229 -6.03759,-10.61014 6.242895,-10.80348 z"
     id="path4921"
     inkscape:connector-curvature="0" />
  <path
     style="fill:#f8b71b;fill-opacity:1;stroke-width:1"
     d="M 72.544409,210.29235 63.357022,194.2161 71.45286,180.19389 c 4.452699,-7.71224 8.095834,-14.44162 8.095834,-14.95422 0,-0.51259 -3.327036,-6.56477 -7.393398,-13.44927 L 64.761889,139.27312 72.979248,124.94044 81.1966,110.60776 74.659811,99.509903 68.123013,88.412017 51.815724,87.658621 35.50843,86.905224 26.656036,71.573744 17.80364,56.242265 27.025296,40.307779 36.246947,24.373295 h 18.449996 18.449998 l 7.797622,13.510938 7.797624,13.510938 16.092493,0.4269 16.09246,0.426904 8.09171,13.937838 8.09172,13.93784 h 13.11411 13.11413 l 8.12429,-14.314538 8.12428,-14.314539 h 18.25113 18.25113 l 8.82711,15.260093 c 4.85493,8.393046 8.82713,16.104234 8.82713,17.135969 0,1.03173 -3.9722,8.742918 -8.82713,17.135962 l -8.82711,15.26009 h -15.9863 -15.9863 l -6.32698,11.12029 c -3.47983,6.11617 -6.32696,11.54595 -6.32696,12.06623 0,0.52024 3.47175,7.05202 7.71501,14.51505 l 7.715,13.56915 -8.90655,15.42475 -8.90655,15.42479 -17.66629,0.75338 -17.6663,0.75341 -7.31501,12.80774 -7.31501,12.80775 -18.6928,0.41919 -18.692799,0.41918 z m 48.106141,-5.19332 6.18603,-11.39041 -6.70893,-11.21149 -6.70893,-11.21146 H 100.08053 86.742348 l -6.688163,11.57813 -6.688153,11.57814 6.481617,11.39202 6.481615,11.39203 14.067616,-0.36827 14.06763,-0.36824 z m 49.23929,-25.41219 c 3.3515,-5.73857 6.09363,-11.29311 6.09363,-12.34342 0,-1.05029 -2.7425,-6.52596 -6.09446,-12.16814 l -6.09446,-10.2585 -13.87056,0.0483 -13.87054,0.0483 -6.35369,11.1318 -6.35367,11.13182 6.35367,11.38921 6.35369,11.38921 13.87138,0.0321 13.87136,0.0321 6.09365,-10.43376 z m -48.68431,-27.9895 c 3.5626,-5.80114 6.49614,-11.30539 6.51901,-12.23162 0.0225,-0.92623 -2.75837,-6.5202 -6.18049,-12.43104 l -6.22205,-10.74699 -13.74296,0.0164 -13.742986,0.0164 -6.461127,11.3362 c -3.553608,6.23493 -6.193632,11.82167 -5.866718,12.41504 0.326923,0.59337 3.44888,6.02048 6.937696,12.06031 l 6.343294,10.98145 12.969451,-0.43389 12.96945,-0.43392 z m 48.57905,-27.76241 c 3.4094,-5.73887 6.19889,-11.24462 6.19889,-12.23501 0,-0.9904 -2.84712,-6.80486 -6.32696,-12.921001 l -6.32697,-11.120298 h -13.12947 -13.12948 l -6.9266,12.008686 -6.92661,12.008713 4.75442,7.95631 c 2.61493,4.37596 5.68818,9.48194 6.82947,11.3466 1.90028,3.10475 3.19979,3.39028 15.42974,3.39028 h 13.35468 z m -47.861,-27.551747 c 3.48962,-5.975058 6.34476,-11.596255 6.34476,-12.491545 0,-0.895294 -2.86965,-6.541346 -6.37703,-12.546787 l -6.37702,-10.918988 -13.59251,0.431935 -13.592506,0.431936 -6.173554,11.368017 -6.17355,11.368014 6.409186,11.610582 6.40919,11.610593 h 13.389134 13.38913 z M 217.797,95.978609 c 3.52212,-6.179984 6.40386,-11.619121 6.40386,-12.086971 0,-0.467851 -2.88174,-5.90699 -6.40386,-12.086969 l -6.40389,-11.236327 -13.56112,0.03238 -13.56116,0.03238 -6.54274,11.457361 c -4.6245,8.098199 -6.17071,12.186655 -5.27378,13.944826 0.69792,1.368102 3.64218,6.692361 6.54277,11.831674 l 5.27375,9.344207 13.56116,0.002 13.56112,0.002 6.40389,-11.236263 z M 74.532438,68.318773 c 3.587666,-6.078868 6.523046,-11.415107 6.523046,-11.858311 0,-0.443208 -2.847138,-5.809959 -6.326974,-11.926116 L 68.401537,33.414055 H 54.686598 40.971652 l -6.326969,11.120291 c -3.479834,6.116157 -6.326972,11.530429 -6.326972,12.031711 0,0.793232 4.555598,8.74102 11.593308,20.225918 1.975868,3.224433 2.954855,3.419742 15.105583,3.013588 l 12.992781,-0.434306 z"
     id="path4487"
     inkscape:connector-curvature="0" />
</svg>
