<?xml version="1.0" encoding="UTF-8" standalone="no"?>
<svg
   xmlns:dc="http://purl.org/dc/elements/1.1/"
   xmlns:cc="http://creativecommons.org/ns#"
   xmlns:rdf="http://www.w3.org/1999/02/22-rdf-syntax-ns#"
   xmlns:svg="http://www.w3.org/2000/svg"
   xmlns="http://www.w3.org/2000/svg"
   xmlns:sodipodi="http://sodipodi.sourceforge.net/DTD/sodipodi-0.dtd"
   xmlns:inkscape="http://www.inkscape.org/namespaces/inkscape"
   version="1.1"
   id="svg2"
   viewBox="0 0 144 144"
   height="144"
   width="144"
   inkscape:version="0.91 r13725"
   sodipodi:docname="bomb.svg"
   inkscape:export-filename="/home/lip/code/MinHex/img/menu/bomb.png"
   inkscape:export-xdpi="75"
   inkscape:export-ydpi="75">
  <defs
     id="defs33" />
  <sodipodi:namedview
     pagecolor="#ffffff"
     bordercolor="#666666"
     borderopacity="1"
     objecttolerance="10"
     gridtolerance="10"
     guidetolerance="10"
     inkscape:pageopacity="0"
     inkscape:pageshadow="2"
     inkscape:window-width="1366"
     inkscape:window-height="713"
     id="namedview31"
     showgrid="false"
     inkscape:zoom="1.6388889"
     inkscape:cx="-101.28814"
     inkscape:cy="70.779662"
     inkscape:window-x="0"
     inkscape:window-y="27"
     inkscape:window-maximized="1"
     inkscape:current-layer="svg2" />
  <metadata
     id="metadata7">
    <rdf:RDF>
      <cc:Work
         rdf:about="">
        <dc:format>image/svg+xml</dc:format>
        <dc:type
           rdf:resource="http://purl.org/dc/dcmitype/StillImage" />
        <dc:title />
      </cc:Work>
    </rdf:RDF>
  </metadata>
  <g
     id="g4274"
     transform="matrix(1.25455,0,0,1.25455,-18.762342,-18.83222)">
    <flowRoot
       transform="matrix(0.7906329,0,0,0.78748525,-54.868,-1973.7676)"
       style="font-style:normal;font-weight:normal;font-size:40px;line-height:125%;font-family:Sans;letter-spacing:0px;word-spacing:0px;fill:#000000;fill-opacity:1;stroke:none"
       id="flowRoot4821"
       xml:space="preserve"><flowRegion
         id="flowRegion4823"><rect
           y="652.36218"
           x="48.57143"
           height="142.85715"
           width="388.57144"
           id="rect4825" /></flowRegion><flowPara
         id="flowPara4827" /></flowRoot>    <path
       id="path3012"
       d=""
       style="fill:#73ffff;fill-opacity:1"
       inkscape:connector-curvature="0" />
    <path
       id="path3032-1"
       d=""
       style="fill:#73ffff;fill-opacity:1"
       inkscape:connector-curvature="0" />
    <path
       id="path3034-6"
       d=""
       style="fill:#73ffff;fill-opacity:1"
       inkscape:connector-curvature="0" />
    <path
       id="path3036-5"
       d=""
       style="fill:#73ffff;fill-opacity:1"
       inkscape:connector-curvature="0" />
    <path
       id="path3040-2"
       d=""
       style="fill:#73ffff;fill-opacity:1"
       inkscape:connector-curvature="0" />
    <path
       id="path3052-7"
       d=""
       style="fill:#73ffff;fill-opacity:1"
       inkscape:connector-curvature="0" />
    <path
       id="path3060-3"
       d=""
       style="fill:#73ffff;fill-opacity:1"
       inkscape:connector-curvature="0" />
    <path
       id="path3062-2"
       d=""
       style="fill:#73ffff;fill-opacity:1"
       inkscape:connector-curvature="0" />
    <path
       id="path3066-6"
       d=""
       style="fill:#73ffff;fill-opacity:1"
       inkscape:connector-curvature="0" />
    <path
       id="path3072-0"
       d=""
       style="fill:#73ffff;fill-opacity:1"
       inkscape:connector-curvature="0" />
    <text
       id="text3985"
       y="-1559.6487"
       x="-409.55182"
       style="font-style:normal;font-variant:normal;font-weight:bold;font-stretch:normal;font-size:70px;line-height:125%;font-family:'Sketch Rockwell';-inkscape-font-specification:'Sketch Rockwell Bold';letter-spacing:0px;word-spacing:0px;fill:#000000;fill-opacity:1;stroke:none"
       xml:space="preserve"
       sodipodi:linespacing="125%"><tspan
         y="-1559.6487"
         x="-409.55182"
         id="tspan3987" /></text>
    <g
       transform="matrix(0.16878604,-0.03253882,0.03253882,0.16878604,128.53753,158.76581)"
       id="g4517">
      <path
         style="opacity:1;fill:#1a1a1a;fill-opacity:0.1907895;fill-rule:nonzero;stroke:none;stroke-width:18.79999924;stroke-linecap:square;stroke-linejoin:round;stroke-miterlimit:4;stroke-dasharray:none;stroke-opacity:1"
         d="m -4.2253498,-710.99062 -60.7360732,55.65707 c -11.825139,-7.69619 -27.324331,-12.55297 -40.803227,-16.51608 l -13.812,18.51258 c -35.48238,-16.17391 -71.9045,-24.67077 -112.48698,-24.69125 -132.14167,-3.5e-4 -231.869,87.96595 -231.86869,196.4778 -3.1e-4,108.51179 99.72702,214.03861 231.86869,214.03828 132.140791,-8.3e-4 231.86670256,-105.52719 231.86632357,-214.03828 -0.0469737,-38.4666 -0.34626594,-73.92807 -26.18105757,-106.01561 l 13.809582,-12.93186 c -0.761698,-2.02665 -2.139231,-4.49965 -4.021275,-7.26489 l 0.0021,0 c -3.62128,-5.30583 -10.30818,-16.12213 -16.441387,-22.05444 l 59.752294,-56.8343 c -2.183069,-14.77303 -23.799925,-23.94843 -30.9486059,-24.33902 z"
         id="circle4320"
         inkscape:connector-curvature="0" />
      <circle
         style="opacity:1;fill:#1a1a1a;fill-opacity:1;fill-rule:nonzero;stroke:none;stroke-width:18.79999924;stroke-linecap:square;stroke-linejoin:round;stroke-miterlimit:4;stroke-dasharray:none;stroke-opacity:1"
         id="path4318"
         cx="-233.16699"
         cy="-521.43512"
         r="201.85776" />
      <path
         id="path8746"
         d="m -8.47789,-781.6667 c 0.13167,1.8148 1.26184,3.3287 3.10554,5.8273 2.26921,3.0755 5.44956,6.6699 7.43274,8.2986 0.86962,0.7142 1.52465,1.407 2.13301,1.9419 0.23939,0.2106 0.41583,0.3694 0.57671,0.5192 1.1072,-0.6649 2.93536,-3.6201 3.92526,-4.5186 3.54428,-3.2173 5.24707,-5.3198 2.57517,-7.1719 -5.06316,-3.5097 -8.45817,-11.2049 -13.89944,-9.4246 -1.98578,0.6497 -3.91824,2.2473 -5.84899,4.5281 z m -1.70402,1.9573 -11.42343,13.1202 c 0.28754,1.183 0.82741,2.4873 1.60251,4.0238 2.01629,3.9968 5.23335,7.1559 8.48646,8.8899 1.62656,0.867 3.26961,1.3883 4.85415,1.3897 0.40224,10e-5 0.80431,-0.04 1.1963,-0.1192 l 5.251,-6.2917 c -0.004,-0.5587 -1.29881,0.2681 -1.49621,-0.3136 -0.60864,-1.7943 -1.93154,-3.7967 -4.10524,-6.7001 -3.63804,-4.8592 -4.70483,-8.0508 -4.2015,-9.8904 0.24499,-0.8954 0.42626,-1.5673 0.51876,-2.1357 0.0462,-0.2842 0.0933,-0.5287 0.0305,-0.9255 -0.0313,-0.1983 -0.0904,-0.4684 -0.33506,-0.7646 -0.0933,-0.1128 -0.2375,-0.1999 -0.37836,-0.2829 z m -16.71011,19.1927 -7.5407,7.9659 c 0.0117,0.037 0.0346,0.07 0.0468,0.1071 l -1.30555,1.4996 c -0.0525,0.2965 -0.0984,0.5979 -0.0842,0.9017 0.0707,1.5122 0.74488,3.0795 1.93209,4.8391 2.29964,3.4084 5.99506,6.3865 9.60169,8.3098 1.56692,0.8355 3.10961,1.4502 4.57003,1.8008 l 6.34359,-7.7268 -10.8911,-7.2456 c 0.26775,-0.015 0.56735,-0.077 0.8424,-0.2777 0.36332,-0.2654 0.54768,-0.6568 0.61286,-0.9475 0.0655,-0.2906 0.0539,-0.5211 0.031,-0.7366 -0.0458,-0.4308 -0.16275,-0.828 -0.3297,-1.3022 -0.33386,-0.9484 -0.89112,-2.1675 -1.67819,-3.7467 -0.83893,-1.6834 -1.27247,-2.6998 -2.15098,-3.4409 z m -10.23014,11.2167 -11.00586,12.6379 c -0.17296,0.5962 -0.28829,1.1962 -0.31782,1.8124 -0.13511,2.8204 1.33086,5.3695 3.83524,8.7904 2.60337,3.5561 5.20702,6.1209 7.75839,7.5511 0.89456,0.5007 1.81891,0.8425 2.73479,1.0206 l 8.1589,-9.9416 c -0.63307,-1.1322 -1.6327,-2.2196 -2.89248,-3.3375 -1.94778,-1.7284 -4.84039,-6.7349 -5.80653,-10.4114 l -1.92082,-7.3023 c -0.0845,-0.3264 -0.27592,-0.615 -0.54381,-0.8196 z m -17.9971,20.7804 c -0.0439,0 -0.0815,0.02 -0.12445,0.024 l -9.77247,11.2227 c 0.14968,2.0632 1.43416,3.7836 3.53025,6.6243 2.57987,3.4964 6.19711,7.582 8.45178,9.4337 0.98867,0.8119 1.92289,1.5999 2.61453,2.208 0.27216,0.2394 0.46746,0.4207 0.65037,0.5909 l 8.45175,-10.2941 c -0.006,-0.1979 -0.0138,-0.396 -0.0434,-0.5975 -0.28681,-1.9636 -1.68309,-3.3434 -3.74742,-5.1752 -2.19808,-1.9505 -4.94432,-6.1936 -5.68488,-8.6917 -0.44569,-1.5033 -0.83538,-2.6711 -1.41018,-3.6242 -0.28739,-0.4766 -0.63331,-0.9134 -1.13462,-1.2521 -0.5013,-0.3387 -1.17123,-0.5186 -1.78136,-0.4693 z m -11.83256,13.472 -12.99064,14.9154 c 0.3269,1.3451 0.94079,2.8266 1.822,4.5734 2.2923,4.544 5.94939,8.1353 9.64782,10.1066 1.84922,0.9857 3.71784,1.5799 5.5193,1.5816 0.45731,2e-4 0.9184,-0.045 1.36403,-0.1348 l 4.56309,-5.5689 c -0.005,-0.635 -0.0744,-1.2829 -0.29867,-1.9442 -0.69195,-2.0399 -2.19241,-4.3138 -4.66367,-7.6146 -4.13606,-5.5245 -5.3486,-9.1539 -4.77637,-11.2454 0.27855,-1.018 0.48255,-1.7813 0.5877,-2.4274 0.0525,-0.3231 0.10642,-0.5979 0.0351,-1.0489 -0.0356,-0.2255 -0.10373,-0.535 -0.38199,-0.8717 -0.10595,-0.1282 -0.26766,-0.2267 -0.4278,-0.3211 z m -18.99851,21.8189 -4.39482,5.0481 c 0.24157,0.7755 0.64712,1.5137 1.188,2.1661 l 3.90856,3.6695 c 0.431,0.3321 0.80466,0.5946 1.23891,0.7908 0.22478,0.1017 0.46582,0.1944 0.8056,0.2261 0.3398,0.032 0.83835,-0.03 1.25139,-0.3316 0.41306,-0.3018 0.61992,-0.7485 0.69404,-1.079 0.0744,-0.3303 0.0644,-0.593 0.0385,-0.838 -0.052,-0.4899 -0.18788,-0.9393 -0.37769,-1.4784 -0.37957,-1.0782 -1.01133,-2.4685 -1.90612,-4.2639 -0.95378,-1.9138 -1.44737,-3.0671 -2.44615,-3.9097 z"
         style="fill:#f7e1c3;fill-opacity:1"
         inkscape:connector-curvature="0" />
      <path
         id="path8748"
         d="m -7.47607,-782.8143 -5.13091,5.8894 c -0.0676,1.0207 0.023,2.0719 0.19815,3.1869 0.30708,1.9558 0.92584,4.0299 1.8411,5.9222 1.79353,3.7081 3.61852,6.3904 5.87021,8.0045 1.12585,0.8071 2.42633,1.3415 3.80892,1.3547 0.14208,0 0.27801,-0.025 0.41919,-0.035 l 7.43222,-9.0601 c -0.23695,-0.7469 -0.62641,-1.4378 -1.11798,-1.9964 -0.7964,-0.9048 -1.7939,-1.611 -3.00294,-2.3168 -1.8158,-1.06 -5.14743,-4.3157 -6.51556,-6.4732 -0.73207,-1.1544 -1.29085,-2.0379 -1.81687,-2.749 -0.26303,-0.3555 -0.47545,-0.7166 -0.80092,-1.0398 -0.16276,-0.1618 -0.35418,-0.3147 -0.59378,-0.4508 -0.15996,-0.091 -0.38075,-0.1609 -0.59084,-0.2363 z m -11.98898,13.7716 -8.92968,10.2473 c 0.27613,1.5462 0.93913,3.1417 1.86018,5.1126 0.78604,1.682 1.68936,3.3954 2.62155,4.9627 l 8.22784,7.7284 c 0.11417,0.012 0.19795,0.036 0.32554,0.041 0.1997,0.01 0.35252,-0.01 0.51314,-0.021 l 11.14253,-13.5812 c -0.2428,-0.2934 -0.55527,-0.5673 -0.97926,-0.7376 -0.95123,-0.382 -1.8147,-0.087 -2.28494,0.1771 -0.56213,0.3154 -0.7327,0.7115 -1.00651,1.0783 -0.0375,-0.013 3.3e-4,0 -0.0428,-0.02 -0.64232,-0.2669 -1.81414,-1.0246 -3.01906,-2.0777 -2.40993,-2.106 -5.08673,-5.4131 -6.2746,-8.074 l -2.15385,-4.8364 z m -16.10856,17.9613 -3.7989,4.3617 c -0.4995,2.0118 0.12988,3.6579 0.8401,5.6744 0.78584,2.2311 1.99374,4.6889 3.49787,7.0082 1.41416,2.1806 2.82289,4.2301 3.9782,5.8124 0.57764,0.7911 1.08736,1.4606 1.52857,1.997 0.22056,0.2683 0.42196,0.502 0.63103,0.721 0.19304,0.2025 0.33823,0.3867 0.80707,0.6767 l 9.98955,-12.1776 c -0.0228,-0.012 -0.0488,-0.024 -0.0714,-0.035 -0.94456,-0.4784 -2.03597,-0.8914 -3.46056,-1.4399 -2.94502,-1.1339 -6.15163,-3.8081 -8.11655,-6.9067 -0.86969,-1.3715 -1.54353,-2.4181 -2.13996,-3.2479 -0.59646,-0.8298 -0.9404,-1.4923 -2.13835,-2.1141 -0.38232,-0.1983 -0.95585,-0.3328 -1.54669,-0.3298 z m -11.66253,13.3948 -8.09132,9.2937 c 0.0128,1.5482 0.27302,3.1603 0.70945,4.7865 0.96443,3.5936 2.85802,7.3318 5.52658,10.6118 1.95909,2.408 3.76931,4.2676 6.45745,4.5088 0.39376,0.035 0.77363,0.019 1.14524,-0.016 l 9.25115,-11.2747 c -0.3379,-0.415 -0.71764,-0.7634 -1.07348,-1.039 -0.83289,-0.6451 -1.77873,-1.1918 -2.98936,-1.8985 -1.89236,-1.1047 -5.78628,-5.2998 -7.41581,-8.3634 l -3.45498,-6.498 c -0.0208,-0.038 -0.0424,-0.075 -0.0649,-0.1114 z m -16.64146,19.1045 -5.82951,6.6993 c -0.0768,1.1604 0.0229,2.3562 0.22195,3.6238 0.34911,2.2235 1.0539,4.5833 2.09447,6.7347 2.03904,4.2156 4.11642,7.2639 6.67635,9.099 1.27997,0.9175 2.75344,1.5259 4.3253,1.541 0.16141,0 0.31714,-0.033 0.47764,-0.044 l 8.4519,-10.2977 c -0.26939,-0.8491 -0.71609,-1.6361 -1.27496,-2.2711 -0.90543,-1.0287 -2.03819,-1.8312 -3.41273,-2.6337 -2.06438,-1.2051 -5.85027,-4.9072 -7.40571,-7.36 -0.83228,-1.3125 -1.47018,-2.3169 -2.0682,-3.1253 -0.29904,-0.4043 -0.53827,-0.8144 -0.9083,-1.182 -0.185,-0.1837 -0.40271,-0.3572 -0.67511,-0.5119 -0.18183,-0.104 -0.43422,-0.1865 -0.67309,-0.272 z m -13.63226,15.6584 -10.14814,11.6521 c 0.31395,1.7579 1.06333,3.5716 2.11045,5.8123 0.89365,1.9123 1.92545,3.8593 2.98526,5.6411 l 9.35144,8.7875 c 0.12971,0.014 0.22751,0.041 0.37255,0.047 0.22707,0.01 0.39975,-0.01 0.58236,-0.026 l 12.6685,-15.4397 c -0.27603,-0.3336 -0.63163,-0.6434 -1.11366,-0.8371 -1.08145,-0.4343 -2.06376,-0.098 -2.59837,0.2018 -0.63907,0.3586 -0.83135,0.8053 -1.14264,1.2223 -0.0426,-0.015 -0.001,0 -0.0502,-0.017 -0.73027,-0.3033 -2.06355,-1.1719 -3.43343,-2.3691 -2.73984,-2.3944 -5.78093,-6.149 -7.13144,-9.1741 l -2.45261,-5.5015 z"
         style="fill:#debd95;fill-opacity:1"
         inkscape:connector-curvature="0" />
      <path
         style="fill:#1a1a1a;fill-opacity:1;fill-rule:evenodd;stroke:none;stroke-width:1px;stroke-linecap:butt;stroke-linejoin:miter;stroke-opacity:1"
         d="m -46.54201,-676.6912 c -8.35787,-14.9128 -28.76434,-35.6011 -50.40184,-43.3487 l -28.88193,32.5561 c 22.21747,10.6392 39.75924,27.8408 54.46248,47.6049 l 27.3661,-31.2099 c -0.48236,-1.5629 -1.35445,-3.4692 -2.54631,-5.6017 z"
         id="path4255"
         inkscape:connector-curvature="0" />
    </g>
    <flowRoot
       transform="translate(0,-908.36219)"
       style="font-style:normal;font-weight:normal;font-size:40px;line-height:125%;font-family:sans-serif;letter-spacing:0px;word-spacing:0px;fill:#000000;fill-opacity:1;stroke:none;stroke-width:1px;stroke-linecap:butt;stroke-linejoin:miter;stroke-opacity:1"
       id="flowRoot4634"
       xml:space="preserve"><flowRegion
         id="flowRegion4636"><rect
           y="-176.51735"
           x="165.44925"
           height="554.70123"
           width="495.66125"
           id="rect4638" /></flowRegion><flowPara
         id="flowPara4640" /></flowRoot>  </g>
</svg>
