<?xml version="1.0" encoding="UTF-8" standalone="no"?>
<svg
   xmlns:dc="http://purl.org/dc/elements/1.1/"
   xmlns:cc="http://creativecommons.org/ns#"
   xmlns:rdf="http://www.w3.org/1999/02/22-rdf-syntax-ns#"
   xmlns:svg="http://www.w3.org/2000/svg"
   xmlns="http://www.w3.org/2000/svg"
   xmlns:sodipodi="http://sodipodi.sourceforge.net/DTD/sodipodi-0.dtd"
   xmlns:inkscape="http://www.inkscape.org/namespaces/inkscape"
   version="1.1"
   id="svg2"
   viewBox="0 0 144 144"
   height="144"
   width="144"
   inkscape:version="0.91 r13725"
   sodipodi:docname="fame.svg"
   inkscape:export-filename="/home/lip/code/MinHex/img/menu/fame.png"
   inkscape:export-xdpi="75"
   inkscape:export-ydpi="75">
  <defs
     id="defs29" />
  <sodipodi:namedview
     pagecolor="#ffffff"
     bordercolor="#666666"
     borderopacity="1"
     objecttolerance="10"
     gridtolerance="10"
     guidetolerance="10"
     inkscape:pageopacity="0"
     inkscape:pageshadow="2"
     inkscape:window-width="1366"
     inkscape:window-height="713"
     id="namedview27"
     showgrid="false"
     inkscape:zoom="1.6388889"
     inkscape:cx="-101.28814"
     inkscape:cy="72"
     inkscape:window-x="0"
     inkscape:window-y="27"
     inkscape:window-maximized="1"
     inkscape:current-layer="svg2" />
  <metadata
     id="metadata7">
    <rdf:RDF>
      <cc:Work
         rdf:about="">
        <dc:format>image/svg+xml</dc:format>
        <dc:type
           rdf:resource="http://purl.org/dc/dcmitype/StillImage" />
        <dc:title />
      </cc:Work>
    </rdf:RDF>
  </metadata>
  <flowRoot
     xml:space="preserve"
     id="flowRoot4821"
     style="font-style:normal;font-weight:normal;font-size:40px;line-height:125%;font-family:Sans;letter-spacing:0px;word-spacing:0px;fill:#000000;fill-opacity:1;stroke:none"
     transform="matrix(0.7906329,0,0,0.78748525,-54.868,-1973.7676)"><flowRegion
       id="flowRegion4823"><rect
         id="rect4825"
         width="388.57144"
         height="142.85715"
         x="48.57143"
         y="652.36218" /></flowRegion><flowPara
       id="flowPara4827" /></flowRoot>  <path
     style="fill:#73ffff;fill-opacity:1;marker-start:"
     d=""
     id="path3012" />
  <path
     style="fill:#73ffff;fill-opacity:1;marker-start:"
     d=""
     id="path3032-1" />
  <path
     style="fill:#73ffff;fill-opacity:1;marker-start:"
     d=""
     id="path3034-6" />
  <path
     style="fill:#73ffff;fill-opacity:1;marker-start:"
     d=""
     id="path3036-5" />
  <path
     style="fill:#73ffff;fill-opacity:1;marker-start:"
     d=""
     id="path3040-2" />
  <path
     style="fill:#73ffff;fill-opacity:1;marker-start:"
     d=""
     id="path3052-7" />
  <path
     style="fill:#73ffff;fill-opacity:1;marker-start:"
     d=""
     id="path3060-3" />
  <path
     style="fill:#73ffff;fill-opacity:1;marker-start:"
     d=""
     id="path3062-2" />
  <path
     style="fill:#73ffff;fill-opacity:1;marker-start:"
     d=""
     id="path3066-6" />
  <path
     style="fill:#73ffff;fill-opacity:1;marker-start:"
     d=""
     id="path3072-0" />
  <text
     xml:space="preserve"
     style="font-style:normal;font-variant:normal;font-weight:bold;font-stretch:normal;font-size:70px;line-height:125%;font-family:'Sketch Rockwell';-inkscape-font-specification:'Sketch Rockwell Bold';letter-spacing:0px;word-spacing:0px;fill:#000000;fill-opacity:1;stroke:none"
     x="-409.55182"
     y="-1559.6487"
     id="text3985"><tspan
       id="tspan3987"
       x="-409.55182"
       y="-1559.6487" /></text>
  <flowRoot
     xml:space="preserve"
     id="flowRoot4634"
     style="font-style:normal;font-weight:normal;font-size:40px;line-height:125%;font-family:sans-serif;letter-spacing:0px;word-spacing:0px;fill:#000000;fill-opacity:1;stroke:none;stroke-width:1px;stroke-linecap:butt;stroke-linejoin:miter;stroke-opacity:1"
     transform="translate(0,-908.36219)"><flowRegion
       id="flowRegion4636"><rect
         id="rect4638"
         width="495.66125"
         height="554.70123"
         x="165.44925"
         y="-176.51735" /></flowRegion><flowPara
       id="flowPara4640" /></flowRoot>  <g
     id="g5984"
     transform="matrix(1.7483521,0,0,1.7483521,-1062.2161,-987.70053)">
    <path
       id="path4707"
       d="m 638.02294,632.67564 c 0,-1.60049 0.38152,-2.5665 1.42622,-3.61119 1.19243,-1.19243 1.92578,-1.42622 4.47382,-1.42622 l 2.00741,0 0,-5.14738 0,-5.14739 -0.70329,-0.2529 c -2.48614,-0.894 -5.48598,-3.64366 -7.90818,-7.24863 -0.46907,-0.69812 -0.74359,-0.95647 -1.2094,-1.13818 -1.0716,-0.41801 -3.80823,-1.88326 -5.07306,-2.71621 -4.74552,-3.12517 -8.68321,-7.53867 -11.18293,-12.53423 -2.08119,-4.15915 -3.18126,-8.25959 -3.35483,-12.50498 l -0.0838,-2.04874 6.41897,0 6.41896,0 0,-1.36584 0,-1.36583 19.62485,0 19.62485,0 0,1.36583 0,1.36584 6.2752,0 6.27519,0 -0.0838,2.04874 c -0.17473,4.27361 -1.2898,8.41066 -3.38104,12.54409 -2.82792,5.58952 -7.17154,10.19542 -12.60534,13.36646 -0.96552,0.56346 -2.23451,1.23651 -2.81999,1.49567 -1.02807,0.45508 -1.09009,0.51156 -1.8126,1.65079 -1.03517,1.63223 -2.82471,3.7384 -4.04952,4.76602 -1.13016,0.9482 -3.09466,2.14519 -3.93651,2.39855 l -0.53915,0.16227 0,5.15302 0,5.15303 1.86364,0 c 2.38894,0 3.15673,0.25289 4.33005,1.42622 1.0447,1.04469 1.42622,2.0107 1.42622,3.61119 l 0,1.14478 -10.711,0 -10.711,0 0,-1.14478 z m -4.41196,-30.30531 c -1.93229,-5.02111 -3.43417,-11.9936 -4.03365,-18.72627 l -0.10881,-1.22206 -4.30379,-0.0381 c -2.3935,-0.0212 -4.3608,0.0189 -4.43224,0.0903 -0.0754,0.0754 -0.0591,0.83305 0.0396,1.83527 0.64772,6.57877 4.05193,12.48143 9.66298,16.75491 0.91001,0.69309 3.34972,2.2764 3.50768,2.2764 0.0229,0 -0.12636,-0.4367 -0.33176,-0.97046 z m 31.42552,0.0848 c 6.69771,-4.21666 10.9369,-10.80838 11.65743,-18.12669 0.0914,-0.92832 0.12579,-1.75321 0.0764,-1.83309 -0.0571,-0.0924 -1.60166,-0.14524 -4.24414,-0.14524 l -4.15439,0 -0.0705,0.46726 c -0.0388,0.25699 -0.1408,1.24362 -0.22677,2.19252 -0.51308,5.66344 -2.03294,12.51658 -3.78636,17.0729 -0.20541,0.53375 -0.33484,0.97046 -0.28762,0.97046 0.0472,0 0.51337,-0.26915 1.0359,-0.59812 z m -10.65952,-0.44987 c 0.44746,-0.40955 0.41815,-0.81771 -0.25484,-3.54813 -0.31808,-1.2905 -0.54073,-2.38557 -0.49477,-2.43348 0.046,-0.0479 0.96785,-0.83127 2.04865,-1.74081 2.1227,-1.78635 2.40648,-2.18389 2.03369,-2.84895 -0.11888,-0.21207 -0.37553,-0.46047 -0.57034,-0.55199 -0.19482,-0.0915 -1.48641,-0.25326 -2.87022,-0.35943 l -2.516,-0.19302 -0.96794,-2.44413 c -1.00553,-2.53905 -1.28081,-2.94732 -1.98729,-2.94732 -0.7071,0 -1.07256,0.52057 -2.01866,2.87544 -0.49243,1.22565 -0.93339,2.27363 -0.97992,2.32884 -0.0465,0.0552 -1.30734,0.18933 -2.8018,0.29804 -2.6742,0.19452 -2.72254,0.20386 -3.05515,0.59055 -0.70585,0.8206 -0.46905,1.22141 1.90491,3.22428 1.05958,0.89395 1.92491,1.70267 1.92294,1.79715 -0.002,0.0945 -0.28802,1.29697 -0.63568,2.67219 -0.68183,2.69707 -0.68282,2.96513 -0.0124,3.40436 0.55778,0.36547 0.9892,0.2049 3.29344,-1.22583 1.1518,-0.71516 2.1567,-1.30029 2.23311,-1.30029 0.0764,0 1.05789,0.58772 2.18107,1.30605 1.12318,0.71834 2.17861,1.36061 2.34541,1.42727 0.38766,0.15494 0.79307,0.0434 1.20184,-0.33079 z"
       style="fill:#1a1a1a;fill-opacity:1"
       inkscape:connector-curvature="0" />
    <path
       style="fill:#1a1a1a;fill-opacity:0.19736843"
       d="m 637.99833,635.01278 c 0,-1.46302 0.38234,-2.3461 1.42956,-3.30101 1.19505,-1.08996 1.93015,-1.30365 4.48406,-1.30365 l 2.01203,0 0,-4.70519 0,-4.70518 -0.70498,-0.23111 c -2.49177,-0.81725 -5.49847,-3.33062 -7.92628,-6.62584 -0.47016,-0.6382 -0.74528,-0.8744 -1.21222,-1.04049 -1.07407,-0.38197 -3.81702,-1.7214 -5.08472,-2.48276 -4.75643,-2.85669 -8.70317,-6.891 -11.20855,-11.4574 -2.08601,-3.80175 -3.18863,-7.54992 -3.36263,-11.43056 l -0.0839,-1.87278 6.43367,0 6.43367,0 0,-1.24842 0,-1.24857 19.67003,0 19.66987,0 0,1.24857 0,1.24842 6.28967,0 6.28951,0 -0.0839,1.87278 c -0.17522,3.90643 -1.29276,7.68798 -3.38889,11.46631 -2.83438,5.10932 -7.18792,9.31954 -12.63428,12.21814 -0.9677,0.51506 -2.23959,1.13024 -2.8264,1.36711 -1.03042,0.41593 -1.09259,0.46762 -1.81685,1.509 -1.03751,1.49197 -2.83121,3.41721 -4.05875,4.35659 -1.13277,0.86667 -3.10183,1.96083 -3.94562,2.19238 l -0.54036,0.14837 0,4.7103 0,4.71033 1.86795,0 c 2.39437,0 3.16391,0.23108 4.33991,1.30365 1.04722,0.95491 1.42956,1.83799 1.42956,3.30101 l 0,1.0464 -10.73561,0 -10.7356,0 0,-1.0464 z m -4.42209,-27.70173 c -1.93674,-4.58972 -3.442,-10.96312 -4.04291,-17.11742 l -0.10902,-1.11705 -4.31376,-0.0347 c -2.39901,-0.0196 -4.37079,0.0172 -4.44238,0.0826 -0.0756,0.0686 -0.0595,0.76148 0.0399,1.67753 0.6492,6.01366 4.0612,11.40921 9.68509,15.31552 0.91214,0.63353 3.35755,2.08072 3.51586,2.08072 0.0233,0 -0.12667,-0.39912 -0.33256,-0.88704 z m 31.49776,0.0779 c 6.71305,-3.85445 10.96202,-9.87985 11.68414,-16.56937 0.0913,-0.84861 0.12605,-1.60265 0.0766,-1.67566 -0.0573,-0.0838 -1.60527,-0.13272 -4.25386,-0.13272 l -4.16396,0 -0.0702,0.4271 c -0.0389,0.23493 -0.14115,1.13683 -0.22736,2.00419 -0.51418,5.17679 -2.03754,11.44114 -3.79501,15.60606 -0.20589,0.4879 -0.33558,0.88702 -0.28824,0.88702 0.0472,0 0.51449,-0.24596 1.03824,-0.54662 z m -8.77312,-1.93062 c 0.60267,-0.50293 0.56308,-1.00424 -0.343,-4.35726 -0.42832,-1.58487 -0.72818,-2.92961 -0.66641,-2.98846 0.063,-0.0596 1.30327,-1.02083 2.75864,-2.13784 2.8584,-2.19374 3.24058,-2.68193 2.73855,-3.49862 -0.15997,-0.26047 -0.50562,-0.56561 -0.76804,-0.67795 -0.26223,-0.11195 -2.0014,-0.31096 -3.86478,-0.44137 l -3.38798,-0.23715 -1.3034,-3.00138 c -1.35401,-3.11823 -1.72473,-3.61951 -2.6761,-3.61951 -0.95212,0 -1.44417,0.63919 -2.71826,3.53122 -0.66305,1.50505 -1.25679,2.79214 -1.3196,2.85986 -0.063,0.0672 -1.76026,0.23246 -3.77279,0.36605 -3.60101,0.23895 -3.66603,0.25035 -4.11382,0.72514 -0.95049,1.00788 -0.63163,1.50002 2.56499,3.95975 1.42672,1.09769 2.59206,2.09089 2.5894,2.20688 -0.003,0.11544 -0.38783,1.59277 -0.85599,3.28168 -0.91805,3.31211 -0.9195,3.64136 -0.0159,4.1807 0.75112,0.44882 1.33209,0.25158 4.43483,-1.50538 1.55089,-0.87832 2.9042,-1.59688 3.00699,-1.59688 0.10303,0 1.42447,0.72177 2.93702,1.60404 1.51237,0.88204 2.93363,1.6709 3.15815,1.75262 0.52207,0.1904 1.06795,0.0536 1.61839,-0.40614 z"
       id="path4709"
       inkscape:connector-curvature="0" />
  </g>
</svg>
