<?xml version="1.0" encoding="UTF-8" standalone="no"?>
<!-- Created with Inkscape (http://www.inkscape.org/) -->

<svg
   xmlns:dc="http://purl.org/dc/elements/1.1/"
   xmlns:cc="http://creativecommons.org/ns#"
   xmlns:rdf="http://www.w3.org/1999/02/22-rdf-syntax-ns#"
   xmlns:svg="http://www.w3.org/2000/svg"
   xmlns="http://www.w3.org/2000/svg"
   xmlns:sodipodi="http://sodipodi.sourceforge.net/DTD/sodipodi-0.dtd"
   xmlns:inkscape="http://www.inkscape.org/namespaces/inkscape"
   width="250mm"
   height="150mm"
   viewBox="0 0 250 150"
   version="1.1"
   id="svg8"
   inkscape:version="0.92.0 r"
   sodipodi:docname="hint.svg"
   inkscape:export-filename="/home/lip/code/MinHex/img/menu/hint.png"
   inkscape:export-xdpi="50.799999"
   inkscape:export-ydpi="50.799999">
  <defs
     id="defs2">
    <filter
       inkscape:collect="always"
       style="color-interpolation-filters:sRGB"
       id="filter4527"
       x="-0.055349771"
       width="1.1106995"
       y="-0.052714493"
       height="1.105429">
      <feGaussianBlur
         inkscape:collect="always"
         stdDeviation="5.2033329"
         id="feGaussianBlur4529" />
    </filter>
  </defs>
  <sodipodi:namedview
     id="base"
     pagecolor="#ffffff"
     bordercolor="#666666"
     borderopacity="1.0"
     inkscape:pageopacity="0.0"
     inkscape:pageshadow="2"
     inkscape:zoom="0.35"
     inkscape:cx="287.15761"
     inkscape:cy="411.41307"
     inkscape:document-units="mm"
     inkscape:current-layer="layer1"
     showgrid="false"
     inkscape:window-width="1366"
     inkscape:window-height="713"
     inkscape:window-x="0"
     inkscape:window-y="27"
     inkscape:window-maximized="1" />
  <metadata
     id="metadata5">
    <rdf:RDF>
      <cc:Work
         rdf:about="">
        <dc:format>image/svg+xml</dc:format>
        <dc:type
           rdf:resource="http://purl.org/dc/dcmitype/StillImage" />
        <dc:title />
      </cc:Work>
    </rdf:RDF>
  </metadata>
  <g
     inkscape:label="Layer 1"
     inkscape:groupmode="layer"
     id="layer1"
     transform="translate(0,-147)">
    <path
       transform="rotate(6.6530218,108.93374,261.55359)"
       style="font-style:normal;font-variant:normal;font-weight:normal;font-stretch:normal;font-size:medium;line-height:23.48113632px;font-family:'Grand Hotel';-inkscape-font-specification:'Grand Hotel';text-align:center;letter-spacing:0.28302363px;word-spacing:0px;text-anchor:middle;fill:#000000;fill-opacity:0.52820518;stroke:none;stroke-width:0.26458338px;stroke-linecap:butt;stroke-linejoin:miter;stroke-opacity:1;filter:url(#filter4527)"
       d="m 147.73438,172.26367 c -15.43116,0.21303 -32.58404,2.37264 -47.69532,8.39844 -15.101489,6.02167 -28.190557,15.95586 -35.240232,31.64453 -0.02842,0.0641 -0.05257,0.12999 -0.07227,0.19727 -0.463571,1.55374 -0.68493,3.06993 -0.917968,4.58789 -21.082127,-2.84132 -33.038771,-8.3458 -39.958985,-13.87305 -5.787792,-4.62278 -7.882907,-8.93545 -9.310547,-12.375 0.33925,-0.0511 0.949826,-0.17274 1.341797,-0.94531 0.411095,-0.81027 0.06176,-1.52616 -0.152343,-1.85156 -0.692505,-1.05245 -1.849656,-2.05501 -3.269532,-2.98829 -0.709937,-0.46663 -1.464401,-0.87961 -2.277343,-1.14257 -0.8129424,-0.26297 -1.7656246,-0.42759 -2.7500004,0.0293 -0.8657201,0.40136 -0.8215359,0.81157 -0.8925781,1.01563 -0.071042,0.20405 -0.095482,0.34685 -0.1191406,0.49609 -0.047318,0.29848 -0.067349,0.60404 -0.078125,0.96094 -0.021552,0.7138 0.00743,1.60701 0.1054687,2.57031 0.196074,1.9266 0.4626093,4.07262 1.875,5.64844 0.1631052,0.18197 0.4096352,0.43534 0.90625,0.56055 0.4966149,0.12521 1.1672194,-0.071 1.4882814,-0.33399 0.05649,-0.0463 0.01213,-0.0562 0.05859,-0.0996 4.255843,7.62992 9.419278,12.75899 16.761718,16.83789 8.475533,4.70837 19.710481,8.35446 35.962891,14.20703 l -0.158203,-0.0664 c 0.09618,0.0469 0.185619,0.059 0.28125,0.0996 0.936479,7.60617 4.509615,14.49008 9.646484,20.32422 8.018785,9.10746 19.652665,15.74687 30.666017,18.91992 l 0.002,-0.006 c 35.58392,11.80283 78.17443,10.38961 109.79688,-11.4668 l 0.004,0.008 c 0.0644,-0.0396 0.11167,-0.0987 0.17578,-0.13867 9.46584,-5.90211 15.77227,-15.78733 17.53906,-26.25 1.77432,-10.5071 -1.07405,-21.63726 -9.91015,-29.65234 l 0.002,-0.002 c -0.008,-0.008 -0.0173,-0.015 -0.0254,-0.0234 -0.0112,-0.0101 -0.0201,-0.0212 -0.0312,-0.0312 -0.0173,-0.0147 -0.0348,-0.029 -0.0527,-0.043 -18.97333,-19.61845 -47.82218,-24.62835 -73.62696,-25.2168 -0.0124,-1.4e-4 -0.0247,-1.4e-4 -0.0371,0 h -0.0156 c -0.007,-5e-5 -0.0143,-5e-5 -0.0215,0 z m -0.0137,1.38281 c 2.25704,-0.0484 -2.16914,-0.0484 0.0879,0 v 0.002 c -0.0293,-0.001 -0.0586,-0.002 -0.0879,-0.002 z m 0.10938,3.17579 c 14.29116,0.19766 29.92053,2.16098 43.68164,7.49609 13.75738,5.33369 25.62141,13.99972 32.62305,27.6543 4.23762,11.75278 0.5797,22.55707 -6.83985,31.2832 -7.43188,8.74073 -18.66934,15.25947 -29.19726,17.98047 -0.0328,0.008 -0.0654,0.0172 -0.0976,0.0273 -33.46274,10.95355 -73.39327,9.12974 -102.669922,-11.41601 -0.02051,-0.0142 -0.04135,-0.0278 -0.0625,-0.041 -19.043248,-12.07867 -20.735415,-40.48334 -1.96875,-53.4668 0.0035,-0.002 0.0063,-0.005 0.0098,-0.008 0.05717,-0.0362 0.111971,-0.076 0.164062,-0.11914 17.53351,-14.90041 41.75395,-18.76011 64.32617,-19.38867 0.0104,-5.6e-4 0.0208,-10e-4 0.0312,-0.002 z M 8.8105469,191.20117 c 0.021273,0.0454 0.047041,0.0779 0.068359,0.12305 -0.00165,-0.003 -0.010124,-0.0109 -0.011719,-0.0137 z m 145.9199231,6.32422 c -1.25116,0 -2.36553,0.69512 -3.05664,1.64258 -0.69111,0.94746 -1.04297,2.15372 -1.04297,3.47851 v 6.27344 c -0.0619,-0.14472 -0.0347,-0.35673 -0.10547,-0.49414 -0.57992,-1.12637 -1.62264,-2.17383 -3.07031,-2.17383 -0.4854,0 -0.91823,0.19012 -1.34375,0.37891 -0.073,-0.0968 -0.0914,-0.21056 -0.18164,-0.30274 -0.34945,-0.35696 -0.9043,-0.71289 -1.62305,-0.71289 -0.611,0 -0.88843,0.19701 -1.14453,0.35938 -0.2561,0.16237 -0.46638,0.34428 -0.67578,0.55469 -0.4188,0.42081 -0.82203,0.95908 -1.19922,1.63281 -0.0824,0.14717 -0.13416,0.36735 -0.21289,0.52734 -0.12369,-0.74062 -0.47817,-1.27252 -0.82617,-1.625 -0.23351,-0.2365 -0.47205,-0.43155 -0.73633,-0.60156 -0.26428,-0.17001 -0.41024,-0.4043 -1.2207,-0.4043 h -1.43555 c -0.15184,0 -0.4934,-0.0381 -0.70899,-0.0547 -0.70918,-0.89434 -1.64331,-1.51953 -2.49414,-1.51953 -1.13347,0 -2.28178,0.73231 -2.74023,1.8496 -0.61371,-0.38053 -1.32004,-0.6621 -2.15039,-0.6621 -1.95701,0 -3.55618,1.20615 -4.55469,2.70507 -0.71326,1.07072 -1.09444,2.34774 -1.30859,3.66993 -0.16565,-0.32919 -0.30991,-0.69249 -0.49805,-0.97071 -0.521,-0.77043 -1.01191,-1.41202 -1.48047,-2.10742 0.19612,-0.428 0.43555,-0.95125 0.43555,-1.71094 0,-0.60648 -0.11831,-1.26666 -0.57031,-1.86133 -0.452,-0.59466 -1.28013,-0.96679 -2.00782,-0.96679 -1.25294,0 -1.81519,0.53871 -2.49218,1.125 -0.677,0.58628 -1.44141,1.26876 -1.44141,2.64062 0,0.46695 0.23844,0.80976 0.39258,1.20899 -0.45536,1.31841 -0.97654,2.72232 -1.26367,3.98242 -0.0274,0.11726 0.0575,0.19727 0.0469,0.31055 -0.208,0.13796 -0.40202,0.29156 -0.54297,0.45703 -0.34248,0.40207 -0.54981,0.87265 -0.64258,1.39843 -0.18552,1.05158 0.2026,2.33118 1.19922,3.28711 l 0.006,0.006 c 1.00719,0.95682 2.3896,1.59571 4.12891,1.59571 1.29729,0 2.38519,-0.4704 3.26562,-1.09571 1.18154,-0.13616 2.15444,-0.471 2.98633,-0.91992 1.2074,1.30713 2.90541,2.01563 4.61719,2.01563 1.91179,0 3.48667,-0.65323 4.58203,-1.60157 0.57282,-0.49593 1.00693,-1.05383 1.35156,-1.62304 0.24006,0.86954 0.60401,1.64856 1.19141,2.16601 0.91244,0.80379 2.01534,1.0586 2.95703,1.0586 1.28786,0 2.26465,-0.58726 3.08008,-1.32227 0.90933,0.75403 1.98843,1.32227 3.32226,1.32227 1.64742,0 2.90543,-0.85542 3.85743,-1.91407 0.27025,0.032 0.54044,0.11914 0.80859,0.11914 0.48253,0 0.92911,-0.10877 1.36719,-0.22851 0.23412,0.35342 0.47959,0.70237 0.8125,0.97851 0.83572,0.69325 1.94302,1.04493 3.10742,1.04493 1.34806,0 2.36754,-0.59535 3.22656,-1.33399 0.85451,0.77248 1.8988,1.33399 3.15235,1.33399 1.16317,0 2.10127,-0.4463 2.90234,-1.03516 0.67173,0.6183 1.53637,1.03516 2.53516,1.03516 0.83763,0 1.56272,-0.27629 2.21093,-0.64063 0.0475,0.0387 0.0736,0.11321 0.12305,0.14649 0.66344,0.44605 1.29285,0.49414 1.75586,0.49414 0.83814,0 1.88008,-0.6992 2.1582,-1.39258 0.27813,-0.69338 0.19922,-1.14805 0.19922,-1.38086 v -3.9082 c 0.009,-0.0957 0.0961,-0.20811 0.11524,-0.31055 v 2.81055 c 0,1.02515 0.3049,2.04029 0.98046,2.8457 0.67557,0.80541 1.76301,1.33594 2.92383,1.33594 1.15418,0 2.06888,-0.48833 2.85157,-1.10743 0.73489,0.48523 1.57173,0.83009 2.52148,0.83008 0.17696,0 0.30798,-0.0897 0.47656,-0.10937 -0.6637,0.60118 -1.3494,1.17037 -1.91015,1.97461 -0.77783,1.11558 -1.3125,2.55388 -1.3125,4.25195 0,1.21399 0.37228,2.363 1.10351,3.25586 0.11762,0.14362 0.30358,0.22183 0.44141,0.34961 -0.0102,0.007 -0.015,0.004 -0.0254,0.0117 -0.0851,0.0609 -0.18972,0.19925 -0.29102,0.3125 -0.006,-0.006 -0.004,-0.014 -0.01,-0.0195 -0.5561,-0.53889 -1.20551,-0.625 -1.75977,-0.625 -0.88031,0 -1.74049,0.21592 -2.32422,0.84375 0.23508,-1.11425 0.40625,-2.25832 0.40625,-3.3711 0,-0.7831 0.0311,-2.03307 -0.40234,-3.3125 -0.21672,-0.63971 -0.57096,-1.31955 -1.19922,-1.85937 -0.62826,-0.53983 -1.52043,-0.85938 -2.44336,-0.85938 -1.25042,0 -2.36392,0.69335 -3.05469,1.64063 -0.69077,0.94727 -1.04297,2.15423 -1.04297,3.47851 V 230.75 c -0.147,-0.29901 -0.13995,-0.66604 -0.38476,-0.88477 -0.56265,-0.50267 -1.28425,-0.71289 -1.97071,-0.71289 -2.61575,0 -4.9807,1.50039 -6.50585,3.8125 -0.16134,-0.51485 -0.33202,-1.0272 -0.56836,-1.47265 -0.30179,-0.56879 -0.65495,-1.07586 -1.11524,-1.50391 -0.46029,-0.42805 -1.07836,-0.83594 -1.92969,-0.83594 -1.12565,0 -1.62472,0.60498 -2.00976,1.09375 -0.0843,0.10698 -0.0786,0.29518 -0.1543,0.4043 -0.58492,-0.72808 -1.4887,-1.22266 -2.44726,-1.22266 -0.45947,0 -0.90597,0.0936 -1.35352,0.37696 -0.44755,0.28332 -0.95117,0.90546 -0.95117,1.67969 0,0.80245 0.11133,0.5826 0.11133,0.88281 v 7.26172 c 0,0.95071 0.16053,1.97097 0.82421,2.86132 0.66369,0.89036 1.85996,1.43164 3.10743,1.43165 2.13106,-10e-6 3.98535,-1.07771 5.1582,-2.64844 0.0987,-0.13224 0.13224,-0.30873 0.22266,-0.44727 0.17096,0.42938 0.3203,0.86976 0.59765,1.2461 0.81557,1.10663 2.20211,1.8496 3.72656,1.84961 0.89006,0 1.64389,-0.29117 2.30274,-0.68165 0.63936,0.40467 1.37332,0.68164 2.19922,0.68165 1.21269,0 2.16085,-0.52058 2.95898,-1.18946 0.83743,0.6938 1.84447,1.18946 3.02539,1.18946 1.20618,0 2.15775,-0.49113 2.97461,-1.11524 0.75739,0.66297 1.65964,1.14258 2.71289,1.14258 1.01536,0 1.86297,-0.39651 2.57422,-0.96094 0.66222,0.56307 1.50349,0.93359 2.45117,0.9336 1.45609,0 2.49746,-0.73211 3.34571,-1.61524 1.13609,0.94231 2.44545,1.61523 3.90234,1.61524 1.36892,0 2.47904,-0.41024 3.44141,-0.95313 0.87715,0.54571 1.87872,0.95313 3.13476,0.95313 1.29456,-10e-6 2.3816,-0.46779 3.26172,-1.0918 1.74477,-0.20079 3.15155,-0.78243 4.14063,-1.58008 0.005,-0.004 0.009,-0.008 0.0137,-0.0117 0.51749,-0.42749 0.90249,-0.9254 1.22265,-1.45898 0.32017,-0.53359 0.62305,-1.00502 0.62305,-1.88868 0,-0.9111 -0.32429,-1.27663 -0.6875,-1.71289 -0.3632,-0.43625 -0.848,-0.97851 -1.89258,-0.97851 -0.59551,0 -1.23269,0.36778 -1.54297,0.73047 -0.0568,0.0665 -0.0591,0.12847 -0.10546,0.19336 -0.22619,-0.58107 -0.49954,-1.11585 -0.80274,-1.56446 -0.52047,-0.77009 -1.01018,-1.4125 -1.47851,-2.10742 0.19676,-0.42809 0.43554,-0.95214 0.43554,-1.71289 0,-0.60787 -0.11947,-1.26932 -0.57226,-1.86328 -0.4528,-0.59396 -1.28014,-0.96484 -2.00782,-0.96484 -1.25433,0 -1.81537,0.54015 -2.49218,1.12695 -0.67681,0.5868 -1.44141,1.26877 -1.44141,2.64062 0,0.46347 0.23637,0.80268 0.38867,1.19922 -0.084,0.2444 -0.16017,0.49274 -0.24609,0.74219 4.4e-4,-0.0305 0.0156,-0.0613 0.0156,-0.0918 0,-1.1278 -0.3237,-2.22329 -1.05273,-3.05859 -0.72903,-0.8353 -1.85719,-1.31641 -3.01758,-1.31641 -1.71575,0 -3.18837,1.01399 -4.19531,2.40821 -0.43547,0.60295 -0.75597,1.32282 -1.02539,2.07617 v -1.4082 c 0,-0.57073 -0.24048,-1.06145 -0.56446,-1.4961 0.59842,-0.22815 1.1707,-0.57079 1.63672,-1.10156 0.85758,-0.97673 1.30274,-2.37694 1.30274,-4.09375 v -4.16406 c 1.44492,-1.34297 3.04679,-3.15804 3.9668,-6.29688 0.006,-0.02 0.0121,-0.0402 0.0176,-0.0605 0.10424,-0.41711 0.0742,-0.64445 0.0742,-0.6621 0,-0.7915 -0.30902,-1.34057 -0.69922,-1.79493 -0.39019,-0.45436 -0.90698,-0.92187 -1.85351,-0.92187 -0.57768,0 -1.16153,0.35888 -1.50586,0.73242 v -1.43945 c 0,-0.46571 -0.15664,-0.8819 -0.38086,-1.26172 0.0961,-0.0947 0.23998,-0.15571 0.30078,-0.26563 0.31783,-0.57452 0.27344,-0.93321 0.27344,-1.26172 0,-0.74637 -0.3237,-1.53127 -0.88672,-2.0332 -0.56302,-0.50193 -1.28424,-0.71289 -1.9707,-0.71289 -3.07954,0 -5.92908,1.96384 -7.29297,5.05469 v -0.40234 c 0,-0.8187 -0.10675,-1.78956 -0.69727,-2.72071 -0.59051,-0.93115 -1.82051,-1.65429 -3.17969,-1.65429 -1.0132,0 -1.89291,0.45528 -2.58789,1.0332 -0.56219,-0.45012 -1.26571,-0.75781 -1.99609,-0.75781 -0.45948,0 -0.90598,0.0936 -1.35352,0.37695 -0.3976,0.25171 -0.78896,0.79559 -0.88281,1.45117 -0.31825,-0.73656 -1.02428,-1.13672 -1.79492,-1.42969 1.7165,-0.11073 3.07422,-1.55362 3.07422,-3.23047 0,-1.75128 -1.51825,-3.26953 -3.26953,-3.26953 -0.61564,0 -1.16821,0.23256 -1.66797,0.55078 -0.0178,-0.0579 0.002,-0.0923 -0.0176,-0.15039 -0.2164,-0.63975 -0.57104,-1.32129 -1.19922,-1.86132 -0.62817,-0.54004 -1.52043,-0.85938 -2.44336,-0.85938 -1.25116,0 -2.36553,0.69512 -3.05664,1.64258 -0.0709,0.0973 -0.0964,0.22555 -0.16016,0.32812 -0.20888,-0.38416 -0.34161,-0.78878 -0.71679,-1.11132 -0.62819,-0.54004 -1.52043,-0.85938 -2.44336,-0.85938 z m 42.55859,0.0566 c -0.34302,0 -0.66032,0.0307 -1.04101,0.14453 -0.19035,0.0569 -0.39699,0.12229 -0.67774,0.32227 -0.28074,0.19997 -0.75,0.69466 -0.75,1.42187 0,0.42503 0.17829,0.79253 0.25391,0.92383 0.0756,0.13131 0.0683,0.11712 0.0508,0.082 -0.035,-0.0702 -0.0293,-0.17553 -0.0293,0.043 v 3.02735 c -0.19671,-0.009 -0.80859,-0.0273 -0.80859,-0.0273 -0.0299,-0.002 -0.0598,-0.002 -0.0898,-0.002 -0.81093,0 -1.70262,0.79322 -1.89063,1.41797 -0.18801,0.62474 -0.104,1.0928 0.0254,1.53711 0.1294,0.4443 0.33443,0.86441 0.69727,1.26172 0.36284,0.3973 0.97366,0.80468 1.74804,0.80468 0.0147,0.001 0.2678,0.007 0.31836,0.01 v 7.24023 c 0,1.34522 0.33174,2.54722 1.12305,3.41797 0.79131,0.87075 1.94449,1.23438 3.00391,1.23438 1.29392,0 2.27604,-0.59053 3.0957,-1.33008 0.91089,0.75914 1.99494,1.33008 3.33398,1.33008 1.64742,0 2.90543,-0.85542 3.85743,-1.91407 0.27025,0.032 0.54044,0.11914 0.80859,0.11914 2.57301,0 4.42528,-1.91309 4.88672,-3.96484 0.15459,-0.66954 0.10863,-1.43651 -0.27539,-2.05664 -0.38474,-0.62129 -1.01866,-0.96132 -1.56446,-1.07227 -0.54579,-0.11094 -1.04565,-0.0607 -1.54687,0.14844 -0.1311,0.0547 -0.26733,0.18293 -0.40625,0.27539 -0.0613,-1.3175 -0.24809,-2.56146 -0.75586,-3.54883 -0.57928,-1.12641 -1.62264,-2.17578 -3.07031,-2.17578 -0.4854,0 -0.91823,0.19012 -1.34375,0.37891 -0.0359,-0.0476 -0.0499,-0.10199 -0.0898,-0.14844 0.0485,-0.20434 0.14399,-0.41471 0.16407,-0.61914 0.0436,-0.44423 0.18182,-0.81156 -0.25977,-1.59961 -0.2208,-0.39402 -0.98603,-0.97163 -1.69922,-0.89844 -0.17031,0.0175 -0.16893,0.11334 -0.29687,0.15625 -1.25941,0.0535 -2.48016,0.0634 -3.69532,0.0762 v -3.21485 c 0,-1.58682 -1.52408,-2.80078 -3.07617,-2.80078 z m 21.95899,2.17774 c 0.0202,0.0234 0.041,0.0462 0.0625,0.0684 0.28854,0.3143 0.97869,1.05023 -0.0664,-0.0664 z m -124.402347,4.66992 c -1.252949,0 -1.815194,0.53871 -2.492187,1.125 -0.676994,0.58628 -1.441407,1.26876 -1.441407,2.64062 0,0.4647 0.237769,0.80544 0.390625,1.20313 -0.350728,1.01843 -0.718264,2.07771 -1.007812,3.08789 -0.01008,0.0126 -0.02732,0.0204 -0.03711,0.0332 v -3.77148 c 0,-1.58682 -1.524074,-2.80078 -3.076171,-2.80078 -0.345678,0 -0.663968,0.0315 -1.044922,0.14648 -0.190477,0.0575 -0.397949,0.12394 -0.677735,0.32422 -0.08509,0.0609 -0.189714,0.19924 -0.291015,0.3125 -0.0056,-0.006 -0.0041,-0.014 -0.0098,-0.0195 -0.5561,-0.53889 -1.205501,-0.625 -1.759765,-0.625 -0.931212,0 -1.863215,0.20448 -2.44336,0.92383 -0.580145,0.71934 -0.544145,1.22049 -0.486328,1.08007 -0.01924,0.0473 -0.03619,0.0956 -0.05078,0.14454 0,0 -1.0625,3.38576 -1.0625,6.67187 0,1.43837 0.306901,2.76041 1.070312,3.81836 0.763411,1.05795 2.068344,1.74414 3.44336,1.74414 1.015356,0 1.86297,-0.39651 2.574218,-0.96094 0.662221,0.56307 1.503494,0.9336 2.451172,0.9336 0.95083,0 1.751427,-0.35022 2.458985,-0.80274 0.824837,0.455 1.750318,0.80274 2.884765,0.80274 1.297096,0 2.384181,-0.47097 3.263672,-1.09571 1.222674,-0.1409 2.221817,-0.49595 3.07032,-0.96875 1.21393,1.31864 2.90434,2.06446 4.64453,2.06446 2.46502,0 4.32556,-1.12787 5.38281,-2.49805 1.05725,-1.37018 1.42676,-2.86989 1.54883,-3.93359 v -0.002 c 0.15387,-1.34644 -0.80187,-2.40283 -1.89063,-2.68164 -0.54438,-0.1394 -1.21541,-0.10748 -1.80859,0.25195 -0.0516,0.0313 -0.049,0.10888 -0.0977,0.14454 0.1456,-0.55697 0.27344,-1.12007 0.27344,-1.67578 0,-1.12781 -0.32371,-2.22329 -1.05273,-3.0586 -0.72903,-0.8353 -1.85719,-1.3164 -3.01758,-1.3164 -1.71527,0 -3.18767,1.01253 -4.19531,2.40624 -0.768456,1.06287 -1.202567,2.44022 -1.414071,3.92774 -0.159983,-0.31314 -0.296404,-0.66328 -0.476562,-0.92969 -0.520449,-0.76961 -1.010323,-1.41095 -1.478516,-2.10547 0.19676,-0.42809 0.435547,-0.95214 0.435547,-1.71289 0,-0.60787 -0.119472,-1.26933 -0.572265,-1.86328 -0.452794,-0.59395 -1.280142,-0.96483 -2.007813,-0.96484 z m 70.019527,1.49219 c 0.0823,0.0473 0.14574,0.12011 0.23243,0.16015 -0.0867,0.0152 -0.17357,0.0469 -0.25977,0.0723 0.0133,-0.0776 0.015,-0.15472 0.0273,-0.23242 z m 36.38868,2.64648 c -0.37324,0.73569 -0.6708,1.61002 -0.88868,2.60937 v -2.59961 c 0.26766,-7.8e-4 0.60243,-0.008 0.88868,-0.01 z m -60.05274,0.62305 -0.0234,0.27148 c 0.005,-0.0298 -0.014,-0.0393 -0.01,-0.0684 0.01,-0.0801 0.0332,-0.0397 0.0332,-0.20312 z m 85.83008,1.46875 c 0.46808,1.00987 -0.34895,-0.91308 0.0527,0.125 0.40169,1.03807 -0.28867,-0.93301 0.0449,0.1289 l -0.008,0.002 c -0.0226,-0.0877 -0.0526,-0.17329 -0.0898,-0.25586 z m -70.02344,0.75195 v 1.79492 c -0.082,0.19914 -0.28496,0.35209 -0.32617,0.55469 -0.0758,0.36901 -0.31697,0.96022 -0.57617,1.31836 -0.14588,0.20156 -0.12832,0.16475 -0.18359,0.20508 -0.0132,-0.0736 -0.0195,-0.0392 -0.0195,-0.15821 v -1.15429 c 0.007,-0.0153 0.03,-0.0378 0.0391,-0.0547 0.12798,-0.23868 0.26586,-0.52426 0.41992,-0.86524 0.19473,-0.431 0.42446,-1.06248 0.64648,-1.64062 z m 6.37696,0 v 1.79492 c -0.0821,0.19925 -0.28492,0.35185 -0.32618,0.55469 -0.0758,0.36901 -0.31696,0.96022 -0.57617,1.31836 -0.14588,0.20156 -0.12832,0.16475 -0.18359,0.20508 -0.0132,-0.0736 -0.0195,-0.0392 -0.0195,-0.15821 v -1.15429 c 0.007,-0.0153 0.03,-0.0378 0.0391,-0.0547 0.12798,-0.23868 0.26586,-0.52426 0.41992,-0.86524 0.19473,-0.431 0.42446,-1.06248 0.64649,-1.64062 z m -32.83017,3.48442 c -0.31412,0.37005 -0.57851,0.54883 -1.21485,0.54883 -0.42011,0 -0.62229,-0.10568 -0.82031,-0.33398 -2.42784,-4.23621 5.27197,-4.15067 2.03516,-0.21485 z M 84.988281,212.2734 v 0.85937 c -0.05231,0.28808 -0.154984,0.45998 -0.230469,0.72461 0.02747,-0.55651 0.156124,-1.11281 0.230469,-1.58398 z m 98.820309,0.47461 v 1.23633 c -0.0487,0.24733 -0.13832,0.45099 -0.22265,0.67382 -0.009,-0.0846 -0.0293,-0.0575 -0.0293,-0.16601 0,-0.70504 0.11449,-1.24538 0.25195,-1.74414 z m -77.02734,1.85937 c -0.052,0.0869 -0.0739,0.25212 -0.12891,0.32031 -0.0896,0.11112 -0.26232,0.0862 -0.35156,0.16016 0.1662,-0.15679 0.33208,-0.31145 0.48047,-0.48047 z m -9.658203,7.00781 c -0.34301,0 -0.660488,0.0311 -1.041016,0.14454 -0.190264,0.0567 -0.396896,0.12291 -0.677734,0.32226 -0.280839,0.19936 -0.751953,0.69204 -0.751953,1.42188 0,0.42773 0.181573,0.79824 0.257812,0.92968 0.07624,0.13145 0.06661,0.11546 0.04883,0.0801 -0.03557,-0.0708 -0.0293,-0.17815 -0.0293,0.0391 v 5.76758 c -0.690152,-0.63976 -1.603806,-1.16797 -2.751954,-1.16797 -1.957395,0 -3.556305,1.20574 -4.554687,2.70508 -0.998382,1.49934 -1.533203,3.35918 -1.533203,5.25977 0,4.11872 3.121463,6.80469 6.363281,6.80469 1.303397,0 2.393478,-0.34808 3.335937,-0.84376 0.105988,0.10899 0.178099,0.26983 0.296876,0.34961 0.663949,0.44599 1.292789,0.49414 1.753906,0.49415 0.838138,0 1.878816,-0.69776 2.158203,-1.39063 0.279385,-0.69287 0.201175,-1.14803 0.201175,-1.38281 v -3.90625 c 0.009,-0.0943 0.0945,-0.20566 0.11328,-0.30664 v 2.80468 c 0,1.02589 0.3063,2.04062 0.98242,2.84571 0.67613,0.80509 1.76301,1.33593 2.92383,1.33594 1.11198,0 2.00634,-0.45251 2.77344,-1.03711 0.78142,0.59989 1.69286,1.03711 2.76172,1.03711 0.88943,0 1.64221,-0.29163 2.30078,-0.68165 0.63897,0.40492 1.37326,0.68165 2.19922,0.68165 0.82608,0 1.55037,-0.26228 2.19531,-0.61719 0.0402,0.0318 0.0619,0.0951 0.10351,0.12304 0.66395,0.44599 1.29279,0.49415 1.75391,0.49415 0.83814,0 1.87881,-0.69776 2.1582,-1.39063 0.27939,-0.69287 0.20118,-1.14803 0.20118,-1.38281 v -3.90625 c 0.009,-0.0944 0.0945,-0.20562 0.11328,-0.30664 v 2.80468 c 0,1.02589 0.30629,2.04062 0.98242,2.84571 0.67613,0.80509 1.763,1.33593 2.92383,1.33594 1.15328,0 2.06709,-0.48876 2.84961,-1.10743 0.73612,0.48535 1.57387,0.83008 2.52343,0.83008 0.1776,0 0.3093,-0.0896 0.47852,-0.10937 -0.66438,0.60168 -1.3508,1.17151 -1.91211,1.97656 -0.77783,1.11558 -1.3125,2.55388 -1.3125,4.25195 0,1.21399 0.37229,2.36301 1.10352,3.25586 0.73122,0.89285 1.87793,1.50586 3.13281,1.50586 1.08812,0 2.29959,-0.43673 3.15625,-1.41406 0.85666,-0.97734 1.30078,-2.37729 1.30078,-4.09375 v -4.12696 c 0.68693,-0.63536 1.36143,-1.44943 2.03125,-2.4121 1.10241,0.84339 2.34823,1.44336 3.72266,1.44336 2.46477,-1e-5 4.32687,-1.12851 5.38476,-2.49805 1.05789,-1.36954 1.42669,-2.86727 1.54883,-3.93164 v -0.002 c 0.154,-1.34749 -0.80208,-2.40518 -1.89063,-2.68359 -0.54427,-0.13921 -1.21525,-0.10525 -1.80859,0.25391 -0.0529,0.032 -0.0499,0.11183 -0.0996,0.14843 0.14658,-0.5588 0.27344,-1.12403 0.27344,-1.68164 0,-1.1278 -0.32371,-2.22329 -1.05274,-3.05859 -0.72902,-0.8353 -1.85719,-1.31641 -3.01757,-1.31641 -1.71575,0 -3.18837,1.01399 -4.19532,2.40821 -0.45107,0.62455 -0.79024,1.36517 -1.0625,2.15039 -0.0601,-0.19536 -0.11156,-0.38567 -0.21484,-0.56055 0.0979,-0.0962 0.24345,-0.1598 0.30469,-0.27148 0.31553,-0.57544 0.26953,-0.92957 0.26953,-1.25586 0,-0.74495 -0.32213,-1.53052 -0.88477,-2.03321 -0.56264,-0.50268 -1.28424,-0.71289 -1.9707,-0.71289 -3.07821,0 -5.92778,1.96224 -7.29297,5.05078 v -0.40039 c 0,-0.8195 -0.10806,-1.78987 -0.69922,-2.7207 -0.59116,-0.93083 -1.82051,-1.6543 -3.17968,-1.6543 -1.01345,0 -1.89353,0.45499 -2.5879,1.03321 -0.56265,-0.44972 -1.26571,-0.75782 -1.99609,-0.75782 -0.45947,0 -0.90574,0.0944 -1.35351,0.37891 -0.31975,0.20317 -0.60113,0.61496 -0.77344,1.09375 -0.15097,-0.35978 -0.16464,-0.77916 -0.45117,-1.03516 -0.56265,-0.50268 -1.28425,-0.71289 -1.97071,-0.71289 -3.19121,0 -6.15992,2.0813 -7.45508,5.3711 v -0.9961 c 0,-0.8195 -0.10805,-1.78987 -0.69921,-2.7207 -0.59117,-0.93083 -1.82052,-1.6543 -3.17969,-1.6543 -0.53836,0 -1.04181,0.13643 -1.50586,0.33594 V 224.416 c 0,-1.58682 -1.524089,-2.80079 -3.076175,-2.80079 z m 18.271483,11.7461 0.002,1.31445 c -0.002,-0.38929 -0.0945,-0.75627 -0.25781,-1.08789 0.0942,-0.0716 0.18021,-0.14253 0.25586,-0.22656 z m 54.38867,0 v 1.31836 c -0.001,-0.39011 -0.0945,-0.75755 -0.25781,-1.08985 0.0951,-0.0721 0.18156,-0.1438 0.25781,-0.22851 z m -78.287106,0.45114 c -0.0056,0.0325 0.01988,0.0792 0.01563,0.11328 -0.003,-0.002 -0.0069,-0.002 -0.0098,-0.004 5.488237,-24.95106 0.0098,0.004 -0.0058,-0.10928 z m 84.730466,0.91211 c -0.13807,0.75483 -0.28293,1.48619 -0.35156,2.35742 -0.005,0.0147 -0.0169,0.0404 -0.041,0.1582 -0.0755,0.36907 -0.31644,0.96311 -0.57617,1.32227 -0.14599,0.20188 -0.12837,0.16471 -0.18359,0.20508 -0.0134,-0.0739 -0.0215,-0.04 -0.0215,-0.16016 v -1.1543 c 0.007,-0.0153 0.03,-0.0378 0.0391,-0.0547 0.12803,-0.23859 0.26576,-0.52435 0.41992,-0.86524 0.21498,-0.47537 0.46863,-1.15683 0.71484,-1.80859 z m -84.357419,0.53906 c 0.220041,0.30374 0.476972,0.60323 0.759765,0.72656 0.723135,0.31538 1.257944,0.19091 1.730469,0.0371 0.20855,-0.0679 0.377716,-0.24725 0.570313,-0.35742 v 0.60352 c -0.0654,0.16139 -0.214882,0.28535 -0.248047,0.45117 -6.69e-4,0.001 -0.0013,0.003 -0.002,0.004 -0.12819,0.65163 -0.394866,1.28034 -0.708985,1.65039 -0.314118,0.37004 -0.578507,0.54882 -1.214844,0.54882 -0.420119,0 -0.621881,-0.10542 -0.820312,-0.33398 -0.198431,-0.22856 -0.410156,-0.67371 -0.410156,-1.47656 0,-0.75456 0.18331,-1.30795 0.34375,-1.85352 z m 89.564449,0.5 v 0.84961 c -0.0515,0.2834 -0.15258,0.45198 -0.22656,0.71289 0.0273,-0.54788 0.15378,-1.09746 0.22656,-1.5625 z m -50.69726,0.46289 v 1.24024 c -0.0486,0.24646 -0.13839,0.44966 -0.22266,0.67187 -0.009,-0.0848 -0.0293,-0.0574 -0.0293,-0.16601 0,-0.70527 0.11458,-1.24725 0.25195,-1.7461 z m 63.79297,1.48438 c -0.27629,0.33095 -0.53794,0.66649 -0.64453,1.07617 l 0.23046,-0.50195 c -0.0871,0.12605 -0.25482,0.0913 -0.33789,0.17773 0.25403,-0.24982 0.54184,-0.47435 0.75196,-0.75195 z m -51.20313,0.375 c -0.0525,0.0882 -0.0752,0.25521 -0.13086,0.32422 -0.0912,0.11321 -0.26635,0.0894 -0.35742,0.16406 0.16912,-0.15918 0.33755,-0.31647 0.48828,-0.48828 z m 55.54688,1.11718 0.004,0.0137 -0.36718,0.46484 c 0.17922,-0.0967 0.21657,-0.33021 0.36328,-0.47852 z m 13.65039,11.52735 v 0.002 c -0.0144,0.003 -0.0287,0.006 -0.043,0.01 -0.49779,0.13681 -1.00749,0.24993 0.043,-0.0117 z m -108.02149,11.24805 c 2.25168,0.18036 -2.16086,-0.26059 0.082,0.008 -0.0273,-0.003 -0.0546,-0.005 -0.082,-0.006 -115.798688,-290.300637 -115.800408,-290.304825 0,-0.002 z"
       id="path4644"
       inkscape:connector-curvature="0"
       sodipodi:nodetypes="cccccsccccccccsccsccscccccccccccccccccccccccccccccccccccccccccccssccsccssccccssscscsccccscscscccccccsccscccscscsccscscsccscsccscscccsscccccscsccscsccsccssccscssscccccccccscsccccccccccscsccccscsssccsssccsccscccscscsccssscscscscccsscccsccccccccsccsccccccccssscscsccccccscccccccsccccccccscccssccccscccssscscsccsscccccscsccccsccccccccccccccccccccccccccccsccccccccccsccccccccccccccccsccccccccsccscssssccccsccscccscsccsssccssccsccscscscccscccccscsscccscscssscscccscscscsccccccccccccccccccccscccccccccccccssscccccccccsccccccccccccccccccccccccccc"
       inkscape:transform-center-x="-5.0682765"
       inkscape:transform-center-y="-59.570967" />
    <g
       aria-label="use scrolling to change values"
       style="font-style:normal;font-weight:normal;font-size:27.61206245px;line-height:17.25753975px;font-family:sans-serif;letter-spacing:0px;word-spacing:0px;fill:#ffffff;fill-opacity:1;stroke:none;stroke-width:0.26458341px;stroke-linecap:butt;stroke-linejoin:miter;stroke-opacity:1"
       id="text4487"
       transform="rotate(6.6530218,118.03786,262.08276)"
       inkscape:transform-center-x="-32.100404"
       inkscape:transform-center-y="11.465819">
      <path
         d="m 88.893735,217.26702 c 2.374637,0 3.451508,-2.48509 3.948525,-4.30748 0.02761,-0.11045 0.02761,-0.16568 0.02761,-0.19329 0,-0.52463 -0.524629,-1.13209 -0.966422,-1.13209 -0.276121,0 -0.552242,0.24851 -0.66269,0.82836 -0.248508,1.21493 -0.745526,2.9821 -1.850008,2.9821 -0.717914,0 -0.717914,-1.02164 -0.717914,-1.27015 V 207.161 c 0,-0.66269 -0.579853,-1.21493 -1.491051,-1.21493 -0.386569,0 -0.883586,0.11045 -0.883586,0.30374 0,0.19328 0.276121,0.2485 0.276121,1.04925 v 4.44555 c -0.331345,1.93284 -1.159707,3.72762 -2.26419,3.72762 -0.800749,0 -1.270154,-0.80074 -1.270154,-2.2918 0,-2.31941 0.303732,-3.53434 0.800749,-5.57763 0.110449,-0.41418 0.911198,-1.51867 -0.441793,-1.51867 -1.463439,0 -1.270155,0.55224 -1.463439,1.02165 0,0 -0.994034,3.28584 -0.994034,6.21271 0,2.40225 1.07687,3.97614 2.926878,3.97614 1.214931,0 2.098517,-0.82836 2.761207,-1.98807 0.193284,1.10449 1.021646,1.96046 2.264189,1.96046 z"
         style="font-style:normal;font-variant:normal;font-weight:normal;font-stretch:normal;line-height:23.48113632px;font-family:'Grand Hotel';-inkscape-font-specification:'Grand Hotel';text-align:center;letter-spacing:0.28302363px;text-anchor:middle;fill:#ffffff;fill-opacity:1;stroke-width:0.26458341px"
         id="path4591"
         inkscape:connector-curvature="0" />
      <path
         d="m 93.188274,212.71103 c 0.358957,-1.32538 0.635077,-2.26419 1.07687,-3.34106 0.966422,0.99403 1.988069,2.15374 1.988069,3.8933 0,0.6903 -0.303733,1.32538 -0.607466,1.68434 -1.380603,0 -3.8933,-1.6015 -4.445542,-1.6015 -0.607465,0 -1.352991,1.46344 0,2.7612 0.552242,0.52463 1.877621,1.15971 3.037327,1.15971 1.132095,0 2.043293,-0.41418 2.705982,-0.99404 1.711948,-0.11044 2.844043,-0.63507 3.700016,-1.32537 0.63508,-0.52463 1.27016,-1.57389 1.27016,-2.12613 0,-0.38657 -0.52463,-1.10449 -0.99404,-1.10449 -0.24851,0 -0.44179,0.2209 -0.63508,0.74553 -0.303729,0.88359 -0.966418,1.71195 -2.264185,1.98807 0.08284,-0.30373 0.13806,-0.66269 0.13806,-0.99404 0,-2.62314 -1.684336,-3.61718 -2.982103,-5.90898 0.02761,-0.16567 0.66269,-1.07687 0.66269,-1.87762 0,-0.74552 -0.331345,-1.24254 -0.994034,-1.24254 -0.745526,0 -2.347026,1.24254 -2.347026,2.18135 0,0.46941 0.165673,0.88359 0.441793,1.29777 -0.497017,1.46344 -1.07687,3.03733 -1.352991,4.25226 -0.220896,0.93881 1.297767,1.71195 1.6015,0.55224 z"
         style="font-style:normal;font-variant:normal;font-weight:normal;font-stretch:normal;line-height:23.48113632px;font-family:'Grand Hotel';-inkscape-font-specification:'Grand Hotel';text-align:center;letter-spacing:0.28302363px;text-anchor:middle;fill:#ffffff;fill-opacity:1;stroke-width:0.26458341px"
         id="path4593"
         inkscape:connector-curvature="0" />
      <path
         d="m 107.03874,208.45877 c 0,-1.65672 -0.93881,-2.78882 -2.48508,-2.78882 -2.12613,0 -4.22465,2.62315 -4.22465,6.12988 0,3.45151 2.37464,5.46719 4.88734,5.46719 4.05897,0 5.16345,-3.34106 5.35674,-5.0254 0.11044,-0.96642 -1.43583,-1.51866 -1.68434,-0.27612 -0.33134,1.68434 -1.21493,3.47912 -3.36867,3.47912 -1.43583,0 -2.18135,-0.77313 -2.56792,-1.71195 2.67837,-0.80074 4.08658,-3.23061 4.08658,-5.2739 z m -4.44554,3.25822 c -0.0552,-1.1597 0.35896,-4.19703 1.71195,-4.19703 0.35895,0 0.57985,0.35896 0.57985,0.96642 0,1.65673 -0.88358,3.09255 -2.26419,3.72763 0,-0.16567 -0.0276,-0.33134 -0.0276,-0.49702 z"
         style="font-style:normal;font-variant:normal;font-weight:normal;font-stretch:normal;line-height:23.48113632px;font-family:'Grand Hotel';-inkscape-font-specification:'Grand Hotel';text-align:center;letter-spacing:0.28302363px;text-anchor:middle;fill:#ffffff;fill-opacity:1;stroke-width:0.26458341px"
         id="path4595"
         inkscape:connector-curvature="0" />
      <path
         d="m 117.1193,212.71103 c 0.35896,-1.32538 0.63508,-2.26419 1.07687,-3.34106 0.96643,0.99403 1.98807,2.15374 1.98807,3.8933 0,0.6903 -0.30373,1.32538 -0.60746,1.68434 -1.38061,0 -3.8933,-1.6015 -4.44554,-1.6015 -0.60747,0 -1.353,1.46344 0,2.7612 0.55224,0.52463 1.87762,1.15971 3.03732,1.15971 1.1321,0 2.0433,-0.41418 2.70598,-0.99404 1.71195,-0.11044 2.84405,-0.63507 3.70002,-1.32537 0.63508,-0.52463 1.27016,-1.57389 1.27016,-2.12613 0,-0.38657 -0.52463,-1.10449 -0.99404,-1.10449 -0.24851,0 -0.44179,0.2209 -0.63508,0.74553 -0.30373,0.88359 -0.96642,1.71195 -2.26418,1.98807 0.0828,-0.30373 0.13806,-0.66269 0.13806,-0.99404 0,-2.62314 -1.68434,-3.61718 -2.98211,-5.90898 0.0276,-0.16567 0.66269,-1.07687 0.66269,-1.87762 0,-0.74552 -0.33134,-1.24254 -0.99403,-1.24254 -0.74553,0 -2.34703,1.24254 -2.34703,2.18135 0,0.46941 0.16567,0.88359 0.4418,1.29777 -0.49702,1.46344 -1.07687,3.03733 -1.353,4.25226 -0.22089,0.93881 1.29777,1.71195 1.6015,0.55224 z"
         style="font-style:normal;font-variant:normal;font-weight:normal;font-stretch:normal;line-height:23.48113632px;font-family:'Grand Hotel';-inkscape-font-specification:'Grand Hotel';text-align:center;letter-spacing:0.28302363px;text-anchor:middle;fill:#ffffff;fill-opacity:1;stroke-width:0.26458341px"
         id="path4597"
         inkscape:connector-curvature="0" />
      <path
         d="m 129.03693,217.26702 c 4.05897,0 5.2739,-3.34106 5.46719,-5.0254 0.11044,-0.96642 -1.43583,-1.51866 -1.68434,-0.27612 -0.33134,1.68434 -1.32538,3.47912 -3.47912,3.47912 -1.62911,0 -2.81643,-1.21493 -2.81643,-3.39628 0,-2.48509 0.96642,-4.52838 1.98807,-4.52838 0.93881,0 0.99403,1.02165 1.13209,1.49105 -0.16567,0.96642 1.73956,0.41418 1.73956,-0.63508 0,-0.96642 -0.71791,-2.70598 -2.62314,-2.70598 -2.62315,0 -4.50077,3.203 -4.50077,6.37839 0,3.39628 2.31941,5.21868 4.77689,5.21868 z"
         style="font-style:normal;font-variant:normal;font-weight:normal;font-stretch:normal;line-height:23.48113632px;font-family:'Grand Hotel';-inkscape-font-specification:'Grand Hotel';text-align:center;letter-spacing:0.28302363px;text-anchor:middle;fill:#ffffff;fill-opacity:1;stroke-width:0.26458341px"
         id="path4599"
         inkscape:connector-curvature="0" />
      <path
         d="m 139.11878,217.26702 c 2.37464,0 3.45151,-2.48509 3.94853,-4.30748 0,-0.0552 0.0276,-0.11045 0.0276,-0.19329 0,-0.52463 -0.52463,-1.13209 -0.96642,-1.13209 -0.27612,0 -0.55224,0.24851 -0.66269,0.82836 -0.24851,1.21493 -0.71792,2.9821 -1.98807,2.9821 -0.74553,0 -1.10448,-0.71791 -1.10448,-1.49105 0,-2.7612 1.24254,-6.01943 1.24254,-6.35077 0.11045,-0.63508 -0.99403,-1.54628 -1.32538,-1.54628 h -1.43583 c -0.27612,0 -0.55224,0 -1.46344,-0.11045 -0.30373,-1.13209 -1.07687,-1.46344 -1.73956,-1.46344 -0.71791,0 -1.3806,0.49702 -1.3806,1.27016 0,0.80075 0.49702,1.3806 1.18732,1.76717 -0.0276,1.40822 -0.13806,3.70002 -0.44179,4.8045 -0.24851,0.93881 1.18732,1.93284 1.54627,0.77314 0.49702,-1.6015 0.66269,-4.00375 0.6903,-5.08062 h 0.30374 2.09851 c -0.88358,2.37464 -1.3806,4.33509 -1.3806,6.10226 0,2.42987 1.54628,3.14778 2.84404,3.14778 z"
         style="font-style:normal;font-variant:normal;font-weight:normal;font-stretch:normal;line-height:23.48113632px;font-family:'Grand Hotel';-inkscape-font-specification:'Grand Hotel';text-align:center;letter-spacing:0.28302363px;text-anchor:middle;fill:#ffffff;fill-opacity:1;stroke-width:0.26458341px"
         id="path4601"
         inkscape:connector-curvature="0" />
      <path
         d="m 151.95537,211.93789 c -0.16567,1.07687 -0.80075,1.98807 -1.98807,1.98807 -0.19328,0 -0.35895,0 -0.55224,-0.0552 0.27612,-0.93881 0.38657,-1.96046 0.38657,-2.98211 0,-2.67837 -1.04926,-4.63882 -2.34702,-4.63882 -1.49106,0 -2.23658,1.49105 -2.23658,3.23061 0,1.98807 0.6903,3.81046 1.98807,4.91494 -0.35896,0.63508 -0.85598,1.04926 -1.62912,1.04926 -1.07687,0 -1.98806,-1.1597 -1.98806,-3.47912 0,-2.73359 0.82836,-3.75524 1.27015,-4.41793 0.71791,-0.4694 0.16567,-1.93284 -0.55224,-1.93284 -0.60747,0 -2.81643,2.45747 -2.81643,6.51645 0,2.7612 1.24254,5.13584 4.03136,5.13584 1.57389,0 2.62315,-0.80075 3.31345,-1.98807 0.41418,0.13806 0.85597,0.19328 1.35299,0.19328 1.87762,0 3.00971,-1.24254 3.34106,-2.73359 0.35896,-1.54627 -1.46344,-1.43583 -1.57389,-0.80075 z m -5.2739,-2.56792 c 0,-0.85597 0.16567,-1.29777 0.4694,-1.29777 0.57986,0 0.66269,1.38061 0.66269,3.25823 0,0.41418 -0.0276,0.82836 -0.0828,1.27015 -0.63508,-0.82836 -1.04926,-1.98807 -1.04926,-3.23061 z"
         style="font-style:normal;font-variant:normal;font-weight:normal;font-stretch:normal;line-height:23.48113632px;font-family:'Grand Hotel';-inkscape-font-specification:'Grand Hotel';text-align:center;letter-spacing:0.28302363px;text-anchor:middle;fill:#ffffff;fill-opacity:1;stroke-width:0.26458341px"
         id="path4603"
         inkscape:connector-curvature="0" />
      <path
         d="m 154.31577,200.45127 c 0,-0.44179 0.11045,-1.10448 0.41418,-1.10448 0.4418,0 0.74553,0.82836 0.74553,2.65076 0,1.51866 -0.57985,5.16345 -1.15971,6.32316 z m 3.92092,12.03886 c -0.24851,1.21493 -1.18732,2.95449 -2.45748,2.95449 -1.02164,0 -1.46344,-0.80075 -1.46344,-1.90523 v -1.6015 c 0.35896,-0.33134 2.87166,-5.90898 2.87166,-9.96795 0,-1.54628 -0.0276,-4.44555 -2.45748,-4.44555 -1.3806,0 -2.51269,1.46344 -2.51269,3.53435 v 12.56349 c 0,2.18135 1.13209,3.64479 3.25822,3.64479 2.5127,0 3.86569,-2.78882 4.36271,-4.27987 0.22089,-0.88359 -1.27016,-2.12613 -1.6015,-0.49702 z"
         style="font-style:normal;font-variant:normal;font-weight:normal;font-stretch:normal;line-height:23.48113632px;font-family:'Grand Hotel';-inkscape-font-specification:'Grand Hotel';text-align:center;letter-spacing:0.28302363px;text-anchor:middle;fill:#ffffff;fill-opacity:1;stroke-width:0.26458341px"
         id="path4605"
         inkscape:connector-curvature="0" />
      <path
         d="m 160.69286,200.45127 c 0,-0.44179 0.11045,-1.10448 0.41419,-1.10448 0.44179,0 0.74552,0.82836 0.74552,2.65076 0,1.51866 -0.57985,5.16345 -1.15971,6.32316 z m 3.92092,12.03886 c -0.24851,1.21493 -1.18732,2.95449 -2.45748,2.95449 -1.02164,0 -1.46344,-0.80075 -1.46344,-1.90523 v -1.6015 c 0.35896,-0.33134 2.87166,-5.90898 2.87166,-9.96795 0,-1.54628 -0.0276,-4.44555 -2.45747,-4.44555 -1.38061,0 -2.5127,1.46344 -2.5127,3.53435 v 12.56349 c 0,2.18135 1.13209,3.64479 3.25822,3.64479 2.5127,0 3.86569,-2.78882 4.36271,-4.27987 0.22089,-0.88359 -1.27016,-2.12613 -1.6015,-0.49702 z"
         style="font-style:normal;font-variant:normal;font-weight:normal;font-stretch:normal;line-height:23.48113632px;font-family:'Grand Hotel';-inkscape-font-specification:'Grand Hotel';text-align:center;letter-spacing:0.28302363px;text-anchor:middle;fill:#ffffff;fill-opacity:1;stroke-width:0.26458341px"
         id="path4607"
         inkscape:connector-curvature="0" />
      <path
         d="m 166.43488,203.21248 c 0.96642,0 1.68433,-0.77314 1.68433,-1.68434 0,-0.96642 -0.71791,-1.68433 -1.68433,-1.68433 -0.9112,0 -1.65673,0.71791 -1.65673,1.68433 0,0.9112 0.74553,1.68434 1.65673,1.68434 z m 0.63507,3.94852 c 0,-0.66269 -0.57985,-1.21493 -1.49105,-1.21493 -0.38657,0 -0.71791,0.19329 -0.71791,0.46941 0,0.19328 0.11045,0.35896 0.11045,0.88358 v 7.37243 c 0,1.40821 0.85597,2.59553 2.31941,2.59553 2.37464,0 3.45151,-2.48509 3.94853,-4.30748 0.22089,-0.88359 -1.27016,-2.18136 -1.6015,-0.49702 -0.24851,1.21493 -0.74553,2.9821 -1.85001,2.9821 -0.71792,0 -0.71792,-1.02164 -0.71792,-1.27015 z"
         style="font-style:normal;font-variant:normal;font-weight:normal;font-stretch:normal;line-height:23.48113632px;font-family:'Grand Hotel';-inkscape-font-specification:'Grand Hotel';text-align:center;letter-spacing:0.28302363px;text-anchor:middle;fill:#ffffff;fill-opacity:1;stroke-width:0.26458341px"
         id="path4609"
         inkscape:connector-curvature="0" />
      <path
         d="m 170.05422,216.05209 c 0,1.02164 0.77313,1.21493 1.32538,1.21493 0.80075,0 0.77313,-0.66269 0.77313,-1.18732 v -4.03136 c 0.19329,-2.18135 1.90524,-4.55599 2.70599,-4.55599 0.52463,0 0.57985,0.71791 0.57985,1.57389 v 5.60525 c 0,1.40821 0.85597,2.59553 2.31941,2.59553 2.37464,0 3.47912,-2.48509 3.94853,-4.30748 0.0276,-0.11045 0.0276,-0.16568 0.0276,-0.19329 0,-0.52463 -0.52463,-1.13209 -0.96642,-1.13209 -0.27612,0 -0.55224,0.24851 -0.66269,0.82836 -0.24851,1.21493 -0.74553,2.9821 -1.85001,2.9821 -0.71791,0 -0.71791,-1.02164 -0.71791,-1.27015 v -5.7157 c 0,-1.27015 -0.4418,-2.78882 -2.29181,-2.78882 -1.35299,0 -2.34702,1.18732 -3.09255,2.7336 V 207.161 c 0,-0.66269 -0.57985,-1.21493 -1.49105,-1.21493 -0.38657,0 -0.71791,0.19329 -0.71791,0.46941 0,0.19328 0.11045,0.35896 0.11045,0.88358 z"
         style="font-style:normal;font-variant:normal;font-weight:normal;font-stretch:normal;line-height:23.48113632px;font-family:'Grand Hotel';-inkscape-font-specification:'Grand Hotel';text-align:center;letter-spacing:0.28302363px;text-anchor:middle;fill:#ffffff;fill-opacity:1;stroke-width:0.26458341px"
         id="path4611"
         inkscape:connector-curvature="0" />
      <path
         d="m 181.97098,224.69466 c 0,1.76718 1.10448,3.17539 2.65076,3.17539 1.40821,0 2.87165,-1.02165 2.87165,-3.92091 v -4.77689 c 1.49105,-1.29777 3.09255,-2.92688 4.03136,-6.12988 0.0276,-0.11044 0.0276,-0.24851 0.0276,-0.27612 0,-0.52463 -0.52463,-1.13209 -0.96643,-1.13209 -0.27612,0 -0.49701,0.24851 -0.66268,0.82836 -0.55225,1.90523 -1.43583,3.28584 -2.42987,4.39032 v -7.51048 c 0,-0.66269 -0.57985,-1.21493 -1.49105,-1.21493 -0.38657,0 -0.71791,0.19328 -0.71791,0.4694 0,0.19329 0.11045,0.35896 0.11045,0.88359 v 3.12016 c -0.19329,1.10448 -0.74553,2.56792 -1.85001,2.56792 -0.96642,0 -1.57389,-0.82836 -1.57389,-2.26419 0,-3.97613 2.45747,-5.77092 4.55599,-5.77092 0.27612,0 0.55224,0.0552 0.80075,0.0552 0.27612,0 0.35896,-0.16568 0.35896,-0.63508 0,-0.71791 -0.52463,-1.15971 -1.27016,-1.15971 -3.36867,0 -6.57167,2.81643 -6.57167,7.42765 0,2.34702 1.1321,4.16942 3.28584,4.16942 0.96642,0 1.71195,-0.44179 2.26419,-0.99404 v 2.89927 c -1.8224,1.6015 -3.4239,3.00972 -3.4239,5.79853 z m 2.65076,1.43583 c -0.44179,0 -0.71791,-0.66269 -0.71791,-1.51866 0,-1.65673 0.60746,-2.70598 1.49105,-3.61718 v 2.95449 c 0,0.52463 0.11045,2.18135 -0.77314,2.18135 z"
         style="font-style:normal;font-variant:normal;font-weight:normal;font-stretch:normal;line-height:23.48113632px;font-family:'Grand Hotel';-inkscape-font-specification:'Grand Hotel';text-align:center;letter-spacing:0.28302363px;text-anchor:middle;fill:#ffffff;fill-opacity:1;stroke-width:0.26458341px"
         id="path4613"
         inkscape:connector-curvature="0" />
      <path
         d="m 194.19665,203.51621 c -0.80075,0 -0.30373,1.85001 0.57985,1.85001 0,0 0.6903,0.0552 1.90523,0.0552 v 8.78064 c 0,2.18135 1.04926,3.06494 2.54031,3.06494 2.37464,0 3.47912,-2.48509 3.94853,-4.30748 0.0276,-0.11045 0.0276,-0.16568 0.0276,-0.19329 0,-0.52463 -0.52463,-1.13209 -0.96642,-1.13209 -0.27612,0 -0.55224,0.24851 -0.66269,0.82836 -0.24851,1.21493 -0.74553,2.9821 -1.85001,2.9821 -0.57985,0 -0.93881,-0.38657 -0.93881,-1.27015 v -8.75303 c 1.46344,0 3.09255,0 5.30152,-0.0552 0.71791,-0.0276 0.96642,-2.67837 0.19328,-1.85001 -1.87762,0.0828 -3.81046,0.11045 -5.4948,0.11045 v -4.83211 c 0,-0.66269 -0.57985,-1.21493 -1.49105,-1.21493 -0.38657,0 -0.88359,0.11045 -0.88359,0.30373 0,0.19329 0.27612,0.24851 0.27612,1.04926 v 4.66644 c -1.49105,-0.0276 -2.48508,-0.0828 -2.48508,-0.0828 z"
         style="font-style:normal;font-variant:normal;font-weight:normal;font-stretch:normal;line-height:23.48113632px;font-family:'Grand Hotel';-inkscape-font-specification:'Grand Hotel';text-align:center;letter-spacing:0.28302363px;text-anchor:middle;fill:#ffffff;fill-opacity:1;stroke-width:0.26458341px"
         id="path4615"
         inkscape:connector-curvature="0" />
      <path
         d="m 212.08625,211.93789 c -0.16567,1.07687 -0.80075,1.98807 -1.98807,1.98807 -0.19328,0 -0.35896,0 -0.55224,-0.0552 0.27612,-0.93881 0.38657,-1.96046 0.38657,-2.98211 0,-2.67837 -1.04926,-4.63882 -2.34703,-4.63882 -1.49105,0 -2.23657,1.49105 -2.23657,3.23061 0,1.98807 0.6903,3.81046 1.98806,4.91494 -0.35895,0.63508 -0.85597,1.04926 -1.62911,1.04926 -1.07687,0 -1.98807,-1.1597 -1.98807,-3.47912 0,-2.73359 0.82837,-3.75524 1.27016,-4.41793 0.71791,-0.4694 0.16567,-1.93284 -0.55224,-1.93284 -0.60747,0 -2.81643,2.45747 -2.81643,6.51645 0,2.7612 1.24254,5.13584 4.03136,5.13584 1.57389,0 2.62315,-0.80075 3.31345,-1.98807 0.41418,0.13806 0.85597,0.19328 1.35299,0.19328 1.87762,0 3.00971,-1.24254 3.34106,-2.73359 0.35895,-1.54627 -1.46344,-1.43583 -1.57389,-0.80075 z m -5.2739,-2.56792 c 0,-0.85597 0.16567,-1.29777 0.4694,-1.29777 0.57985,0 0.66269,1.38061 0.66269,3.25823 0,0.41418 -0.0276,0.82836 -0.0828,1.27015 -0.63507,-0.82836 -1.04925,-1.98807 -1.04925,-3.23061 z"
         style="font-style:normal;font-variant:normal;font-weight:normal;font-stretch:normal;line-height:23.48113632px;font-family:'Grand Hotel';-inkscape-font-specification:'Grand Hotel';text-align:center;letter-spacing:0.28302363px;text-anchor:middle;fill:#ffffff;fill-opacity:1;stroke-width:0.26458341px"
         id="path4617"
         inkscape:connector-curvature="0" />
      <path
         d="m 92.452671,240.74815 c 4.058973,0 5.273904,-3.34105 5.467188,-5.02539 0.110448,-0.96642 -1.435827,-1.51866 -1.684336,-0.27612 -0.331344,1.68433 -1.325379,3.47912 -3.47912,3.47912 -1.629111,0 -2.81643,-1.21493 -2.81643,-3.39629 0,-2.48508 0.966422,-4.52837 1.988069,-4.52837 0.93881,0 0.994034,1.02164 1.132094,1.49105 -0.165672,0.96642 1.73956,0.41418 1.73956,-0.63508 0,-0.96642 -0.717914,-2.70598 -2.623146,-2.70598 -2.623146,0 -4.500766,3.203 -4.500766,6.37838 0,3.39629 2.319413,5.21868 4.776887,5.21868 z"
         style="font-style:normal;font-variant:normal;font-weight:normal;font-stretch:normal;line-height:23.48113632px;font-family:'Grand Hotel';-inkscape-font-specification:'Grand Hotel';text-align:center;letter-spacing:0.28302363px;text-anchor:middle;fill:#ffffff;fill-opacity:1;stroke-width:0.26458341px"
         id="path4619"
         inkscape:connector-curvature="0" />
      <path
         d="m 96.515096,239.53322 c 0,1.02165 0.773138,1.21493 1.325379,1.21493 0.80075,0 0.773138,-0.66268 0.773138,-1.18731 v -4.03137 c 0.193284,-2.18135 1.905237,-4.55599 2.705977,-4.55599 0.52463,0 0.57986,0.71792 0.57986,1.57389 v 5.60525 c 0,1.40822 0.85597,2.59553 2.31941,2.59553 2.37464,0 3.45151,-2.48508 3.94853,-4.30748 0.22089,-0.88358 -1.27016,-2.18135 -1.6015,-0.49701 -0.24851,1.21493 -0.74553,2.9821 -1.85001,2.9821 -0.71792,0 -0.71792,-1.02165 -0.71792,-1.27016 v -5.71569 c 0,-1.27016 -0.44179,-2.78882 -2.2918,-2.78882 -1.35299,0 -2.347022,1.18732 -3.092547,2.73359 v -9.05675 c 0,-0.66269 -0.579854,-1.21493 -1.491052,-1.21493 -0.386569,0 -0.883586,0.11044 -0.883586,0.30373 0,0.19328 0.276121,0.24851 0.276121,1.04926 z"
         style="font-style:normal;font-variant:normal;font-weight:normal;font-stretch:normal;line-height:23.48113632px;font-family:'Grand Hotel';-inkscape-font-specification:'Grand Hotel';text-align:center;letter-spacing:0.28302363px;text-anchor:middle;fill:#ffffff;fill-opacity:1;stroke-width:0.26458341px"
         id="path4621"
         inkscape:connector-curvature="0" />
      <path
         d="m 114.75114,238.92576 c -0.66269,0 -0.93881,-0.66269 -0.93881,-1.27016 v -4.55599 c 0,-0.66269 -0.57986,-1.21493 -1.49105,-1.21493 -0.38657,0 -0.71792,0.19329 -0.71792,0.46941 0,0.19328 0.11045,0.35895 0.11045,0.88358 v 4.25226 c -0.30373,0.77314 -0.80075,1.43583 -1.54627,1.43583 -0.96643,0 -1.57389,-0.82836 -1.57389,-2.26419 0,-3.97614 2.45747,-5.77092 4.55599,-5.77092 0.27612,0 0.55224,0.0552 0.80075,0.0552 0.27612,0 0.35895,-0.16567 0.35895,-0.63507 0,-0.71792 -0.52462,-1.15971 -1.27015,-1.15971 -3.36867,0 -6.57167,2.81643 -6.57167,7.42764 0,2.34703 1.13209,4.16942 3.28583,4.16942 1.04926,0 1.8224,-0.49701 2.37464,-1.13209 0.41418,0.66269 1.15971,1.13209 2.12613,1.13209 2.37464,0 3.47912,-2.48508 3.94853,-4.30748 0.0276,-0.11045 0.0276,-0.16567 0.0276,-0.19328 0,-0.52463 -0.52463,-1.1321 -0.96642,-1.1321 -0.27613,0 -0.55225,0.24851 -0.66269,0.82837 -0.24851,1.21493 -0.74553,2.9821 -1.85001,2.9821 z"
         style="font-style:normal;font-variant:normal;font-weight:normal;font-stretch:normal;line-height:23.48113632px;font-family:'Grand Hotel';-inkscape-font-specification:'Grand Hotel';text-align:center;letter-spacing:0.28302363px;text-anchor:middle;fill:#ffffff;fill-opacity:1;stroke-width:0.26458341px"
         id="path4623"
         inkscape:connector-curvature="0" />
      <path
         d="m 116.98124,239.53322 c 0,1.02165 0.77314,1.21493 1.32538,1.21493 0.80075,0 0.77314,-0.66268 0.77314,-1.18731 v -4.03137 c 0.19328,-2.18135 1.90523,-4.55599 2.70598,-4.55599 0.52463,0 0.57986,0.71792 0.57986,1.57389 v 5.60525 c 0,1.40822 0.85597,2.59553 2.31941,2.59553 2.37464,0 3.47912,-2.48508 3.94852,-4.30748 0.0276,-0.11045 0.0276,-0.16567 0.0276,-0.19328 0,-0.52463 -0.52463,-1.1321 -0.96643,-1.1321 -0.27612,0 -0.55224,0.24851 -0.66269,0.82837 -0.2485,1.21493 -0.74552,2.9821 -1.85,2.9821 -0.71792,0 -0.71792,-1.02165 -0.71792,-1.27016 v -5.71569 c 0,-1.27016 -0.44179,-2.78882 -2.2918,-2.78882 -1.35299,0 -2.34702,1.18732 -3.09255,2.73359 v -1.24254 c 0,-0.66269 -0.57985,-1.21493 -1.49105,-1.21493 -0.38657,0 -0.71791,0.19328 -0.71791,0.4694 0,0.19329 0.11044,0.35896 0.11044,0.88359 z"
         style="font-style:normal;font-variant:normal;font-weight:normal;font-stretch:normal;line-height:23.48113632px;font-family:'Grand Hotel';-inkscape-font-specification:'Grand Hotel';text-align:center;letter-spacing:0.28302363px;text-anchor:middle;fill:#ffffff;fill-opacity:1;stroke-width:0.26458341px"
         id="path4625"
         inkscape:connector-curvature="0" />
      <path
         d="m 128.898,248.1758 c 0,1.76717 1.10449,3.17539 2.65076,3.17539 1.40822,0 2.87166,-1.02165 2.87166,-3.92092 v -4.77688 c 1.49105,-1.29777 3.09255,-2.92688 4.03136,-6.12988 0.0276,-0.11045 0.0276,-0.24851 0.0276,-0.27612 0,-0.52463 -0.52463,-1.1321 -0.96642,-1.1321 -0.27612,0 -0.49702,0.24851 -0.66269,0.82837 -0.55224,1.90523 -1.43583,3.28583 -2.42986,4.39031 v -7.51048 c 0,-0.66269 -0.57986,-1.21493 -1.49106,-1.21493 -0.38656,0 -0.71791,0.19329 -0.71791,0.46941 0,0.19328 0.11045,0.35895 0.11045,0.88358 v 3.12017 c -0.19329,1.10448 -0.74553,2.56792 -1.85001,2.56792 -0.96642,0 -1.57389,-0.82836 -1.57389,-2.26419 0,-3.97614 2.45748,-5.77092 4.55599,-5.77092 0.27612,0 0.55225,0.0552 0.80075,0.0552 0.27612,0 0.35896,-0.16567 0.35896,-0.63508 0,-0.71791 -0.52463,-1.1597 -1.27015,-1.1597 -3.36868,0 -6.57168,2.81643 -6.57168,7.42764 0,2.34703 1.1321,4.16942 3.28584,4.16942 0.96642,0 1.71195,-0.44179 2.26419,-0.99403 v 2.89927 c -1.8224,1.6015 -3.4239,3.00971 -3.4239,5.79853 z m 2.65076,1.43583 c -0.44179,0 -0.71791,-0.66269 -0.71791,-1.51867 0,-1.65672 0.60746,-2.70598 1.49105,-3.61718 v 2.95449 c 0,0.52463 0.11045,2.18136 -0.77314,2.18136 z"
         style="font-style:normal;font-variant:normal;font-weight:normal;font-stretch:normal;line-height:23.48113632px;font-family:'Grand Hotel';-inkscape-font-specification:'Grand Hotel';text-align:center;letter-spacing:0.28302363px;text-anchor:middle;fill:#ffffff;fill-opacity:1;stroke-width:0.26458341px"
         id="path4627"
         inkscape:connector-curvature="0" />
      <path
         d="m 143.58245,231.93991 c 0,-1.65673 -0.93882,-2.78882 -2.48509,-2.78882 -2.12613,0 -4.22465,2.62314 -4.22465,6.12988 0,3.4515 2.37464,5.46718 4.88734,5.46718 4.05897,0 5.16345,-3.34105 5.35674,-5.02539 0.11045,-0.96642 -1.43583,-1.51866 -1.68434,-0.27612 -0.33134,1.68433 -1.21493,3.47912 -3.36867,3.47912 -1.43583,0 -2.18135,-0.77314 -2.56792,-1.71195 2.67837,-0.80075 4.08659,-3.23061 4.08659,-5.2739 z m -4.44555,3.25822 c -0.0552,-1.15971 0.35896,-4.19703 1.71195,-4.19703 0.35896,0 0.57985,0.35895 0.57985,0.96642 0,1.65672 -0.88358,3.09255 -2.26418,3.72763 0,-0.16568 -0.0276,-0.33135 -0.0276,-0.49702 z"
         style="font-style:normal;font-variant:normal;font-weight:normal;font-stretch:normal;line-height:23.48113632px;font-family:'Grand Hotel';-inkscape-font-specification:'Grand Hotel';text-align:center;letter-spacing:0.28302363px;text-anchor:middle;fill:#ffffff;fill-opacity:1;stroke-width:0.26458341px"
         id="path4629"
         inkscape:connector-curvature="0" />
      <path
         d="m 152.08912,238.04217 c 0,1.49105 0.57985,2.70598 2.34702,2.70598 3.25822,0 5.32913,-3.09255 5.32913,-6.82017 0,-2.37464 -1.35299,-4.77689 -2.45747,-4.77689 -0.52463,0 -1.1321,0.85597 -1.1321,1.35299 0,0.16567 0.24851,0.13806 0.38657,0.24851 0.35896,0.27612 1.13209,0.85597 1.13209,3.09255 0,3.203 -1.54627,5.08062 -2.89926,5.08062 -0.49702,0 -0.60747,-0.33135 -0.60747,-0.85598 v -7.42764 c 0,-0.66269 -0.57985,-1.21493 -1.49105,-1.21493 -0.38657,0 -0.71791,0.19328 -0.71791,0.4694 0,0.19329 0.11045,0.35896 0.11045,0.88359 z"
         style="font-style:normal;font-variant:normal;font-weight:normal;font-stretch:normal;line-height:23.48113632px;font-family:'Grand Hotel';-inkscape-font-specification:'Grand Hotel';text-align:center;letter-spacing:0.28302363px;text-anchor:middle;fill:#ffffff;fill-opacity:1;stroke-width:0.26458341px"
         id="path4631"
         inkscape:connector-curvature="0" />
      <path
         d="m 169.1387,238.92576 c -0.66269,0 -0.93881,-0.66269 -0.93881,-1.27016 v -4.55599 c 0,-0.66269 -0.57985,-1.21493 -1.49105,-1.21493 -0.38657,0 -0.71791,0.19329 -0.71791,0.46941 0,0.19328 0.11045,0.35895 0.11045,0.88358 v 4.25226 c -0.30374,0.77314 -0.80075,1.43583 -1.54628,1.43583 -0.96642,0 -1.57389,-0.82836 -1.57389,-2.26419 0,-3.97614 2.45748,-5.77092 4.55599,-5.77092 0.27612,0 0.55225,0.0552 0.80075,0.0552 0.27612,0 0.35896,-0.16567 0.35896,-0.63507 0,-0.71792 -0.52463,-1.15971 -1.27015,-1.15971 -3.36868,0 -6.57168,2.81643 -6.57168,7.42764 0,2.34703 1.1321,4.16942 3.28584,4.16942 1.04926,0 1.8224,-0.49701 2.37464,-1.13209 0.41418,0.66269 1.1597,1.13209 2.12613,1.13209 2.37463,0 3.47912,-2.48508 3.94852,-4.30748 0.0276,-0.11045 0.0276,-0.16567 0.0276,-0.19328 0,-0.52463 -0.52463,-1.1321 -0.96642,-1.1321 -0.27612,0 -0.55224,0.24851 -0.66269,0.82837 -0.24851,1.21493 -0.74552,2.9821 -1.85001,2.9821 z"
         style="font-style:normal;font-variant:normal;font-weight:normal;font-stretch:normal;line-height:23.48113632px;font-family:'Grand Hotel';-inkscape-font-specification:'Grand Hotel';text-align:center;letter-spacing:0.28302363px;text-anchor:middle;fill:#ffffff;fill-opacity:1;stroke-width:0.26458341px"
         id="path4633"
         inkscape:connector-curvature="0" />
      <path
         d="m 173.46733,223.93241 c 0,-0.44179 0.11044,-1.10448 0.41418,-1.10448 0.44179,0 0.74552,0.82836 0.74552,2.65075 0,1.51867 -0.57985,5.16346 -1.1597,6.32317 z m 3.92091,12.03886 c -0.24851,1.21493 -1.18732,2.95449 -2.45747,2.95449 -1.02165,0 -1.46344,-0.80075 -1.46344,-1.90523 v -1.6015 c 0.35895,-0.33135 2.87165,-5.90898 2.87165,-9.96796 0,-1.54627 -0.0276,-4.44554 -2.45747,-4.44554 -1.38061,0 -2.5127,1.46344 -2.5127,3.53434 v 12.56349 c 0,2.18136 1.13209,3.64479 3.25822,3.64479 2.5127,0 3.86569,-2.78881 4.36271,-4.27986 0.22089,-0.88359 -1.27016,-2.12613 -1.6015,-0.49702 z"
         style="font-style:normal;font-variant:normal;font-weight:normal;font-stretch:normal;line-height:23.48113632px;font-family:'Grand Hotel';-inkscape-font-specification:'Grand Hotel';text-align:center;letter-spacing:0.28302363px;text-anchor:middle;fill:#ffffff;fill-opacity:1;stroke-width:0.26458341px"
         id="path4635"
         inkscape:connector-curvature="0" />
      <path
         d="m 185.33922,240.74815 c 2.37463,0 3.4515,-2.48508 3.94852,-4.30748 0.0276,-0.11045 0.0276,-0.16567 0.0276,-0.19328 0,-0.52463 -0.52463,-1.1321 -0.96642,-1.1321 -0.27612,0 -0.55224,0.24851 -0.66269,0.82837 -0.24851,1.21493 -0.74552,2.9821 -1.85001,2.9821 -0.71791,0 -0.71791,-1.02165 -0.71791,-1.27016 v -7.01346 c 0,-0.66269 -0.57985,-1.21493 -1.49105,-1.21493 -0.38657,0 -0.88359,0.11045 -0.88359,0.30373 0,0.19329 0.27612,0.24851 0.27612,1.04926 v 4.44554 c -0.33134,1.93285 -1.1597,3.72763 -2.26419,3.72763 -0.80075,0 -1.27015,-0.80075 -1.27015,-2.2918 0,-2.31941 0.30373,-3.53434 0.80075,-5.57764 0.11045,-0.41418 0.9112,-1.51866 -0.44179,-1.51866 -1.46344,0 -1.27016,0.55224 -1.46344,1.02165 0,0 -0.99404,3.28583 -0.99404,6.21271 0,2.40225 1.07687,3.97614 2.92688,3.97614 1.21493,0 2.09852,-0.82837 2.76121,-1.98807 0.19328,1.10448 1.02164,1.96045 2.26419,1.96045 z"
         style="font-style:normal;font-variant:normal;font-weight:normal;font-stretch:normal;line-height:23.48113632px;font-family:'Grand Hotel';-inkscape-font-specification:'Grand Hotel';text-align:center;letter-spacing:0.28302363px;text-anchor:middle;fill:#ffffff;fill-opacity:1;stroke-width:0.26458341px"
         id="path4637"
         inkscape:connector-curvature="0" />
      <path
         d="m 194.41065,231.93991 c 0,-1.65673 -0.93881,-2.78882 -2.48509,-2.78882 -2.12613,0 -4.22464,2.62314 -4.22464,6.12988 0,3.4515 2.37463,5.46718 4.88733,5.46718 4.05897,0 5.16346,-3.34105 5.35674,-5.02539 0.11045,-0.96642 -1.43583,-1.51866 -1.68434,-0.27612 -0.33134,1.68433 -1.21493,3.47912 -3.36867,3.47912 -1.43582,0 -2.18135,-0.77314 -2.56792,-1.71195 2.67837,-0.80075 4.08659,-3.23061 4.08659,-5.2739 z m -4.44555,3.25822 c -0.0552,-1.15971 0.35896,-4.19703 1.71195,-4.19703 0.35896,0 0.57986,0.35895 0.57986,0.96642 0,1.65672 -0.88359,3.09255 -2.26419,3.72763 0,-0.16568 -0.0276,-0.33135 -0.0276,-0.49702 z"
         style="font-style:normal;font-variant:normal;font-weight:normal;font-stretch:normal;line-height:23.48113632px;font-family:'Grand Hotel';-inkscape-font-specification:'Grand Hotel';text-align:center;letter-spacing:0.28302363px;text-anchor:middle;fill:#ffffff;fill-opacity:1;stroke-width:0.26458341px"
         id="path4639"
         inkscape:connector-curvature="0" />
      <path
         d="m 198.11411,236.19216 c 0.35896,-1.32537 0.63508,-2.26418 1.07687,-3.34106 0.96643,0.99404 1.98807,2.15375 1.98807,3.89331 0,0.6903 -0.30373,1.32537 -0.60746,1.68433 -1.38061,0 -3.8933,-1.6015 -4.44554,-1.6015 -0.60747,0 -1.353,1.46344 0,2.76121 0.55224,0.52463 1.87762,1.1597 3.03732,1.1597 1.1321,0 2.04329,-0.41418 2.70598,-0.99403 1.71195,-0.11045 2.84405,-0.63508 3.70002,-1.32538 0.63508,-0.52463 1.27016,-1.57389 1.27016,-2.12613 0,-0.38657 -0.52463,-1.10448 -0.99404,-1.10448 -0.24851,0 -0.44179,0.2209 -0.63508,0.74553 -0.30373,0.88358 -0.96642,1.71194 -2.26419,1.98806 0.0828,-0.30373 0.13807,-0.66269 0.13807,-0.99403 0,-2.62315 -1.68434,-3.61718 -2.98211,-5.90898 0.0276,-0.16567 0.66269,-1.07687 0.66269,-1.87762 0,-0.74553 -0.33134,-1.24254 -0.99403,-1.24254 -0.74553,0 -2.34703,1.24254 -2.34703,2.18135 0,0.4694 0.16567,0.88358 0.4418,1.29777 -0.49702,1.46343 -1.07688,3.03732 -1.353,4.25225 -0.22089,0.93881 1.29777,1.71195 1.6015,0.55224 z"
         style="font-style:normal;font-variant:normal;font-weight:normal;font-stretch:normal;line-height:23.48113632px;font-family:'Grand Hotel';-inkscape-font-specification:'Grand Hotel';text-align:center;letter-spacing:0.28302363px;text-anchor:middle;fill:#ffffff;fill-opacity:1;stroke-width:0.26458341px"
         id="path4641"
         inkscape:connector-curvature="0" />
    </g>
    <path
       style="opacity:1;fill:#ffffff;fill-opacity:1;fill-rule:nonzero;stroke:none;stroke-width:0.01322918;stroke-linecap:round;stroke-linejoin:round;stroke-miterlimit:4;stroke-dasharray:none;stroke-opacity:0.39215686"
       d="m 17.909886,171.58681 c -0.376367,0.12389 -1.032949,6.20749 0.445956,8.30269 0.566982,0.80322 0.850158,-3.51482 1.090871,-2.94538 6.708052,20.07989 18.545105,24.38132 49.513854,39.79291 4.210646,2.69928 7.454363,-3.81692 0.813985,-5.48577 -42.443182,-10.6665 -46.516986,-28.20389 -48.428984,-35.45523 -0.227411,-0.49366 2.924778,1.04408 2.415776,0.0316 -0.670406,-1.33344 -4.052705,-4.83383 -5.851559,-4.24085 z"
       id="path4507"
       inkscape:connector-curvature="0"
       sodipodi:nodetypes="csccscssc"
       inkscape:transform-center-x="75.206881"
       inkscape:transform-center-y="-21.64822" />
    <path
       style="opacity:1;fill:#ffffff;fill-opacity:1;fill-rule:nonzero;stroke:none;stroke-width:0.01322914;stroke-linecap:round;stroke-linejoin:round;stroke-miterlimit:4;stroke-dasharray:none;stroke-opacity:0.39215686"
       d="m 157.96178,176.311 c -15.21999,-1.56265 -32.33734,-1.39187 -47.7709,2.76872 -15.424552,4.15795 -29.147715,12.27925 -37.720444,26.63182 -5.071432,11.79506 -2.254167,23.23947 4.43388,32.8945 6.691644,9.66047 17.275531,17.47077 27.574934,21.78442 a 0.501152,0.501152 0 0 1 0.0204,0.004 c 33.62345,15.69382 75.6657,19.14529 109.06728,1.35899 a 0.501152,0.501152 0 0 1 0.0214,-0.004 c 9.74832,-4.53284 16.94004,-13.34773 19.79874,-23.16318 2.8587,-9.81537 1.40252,-20.59929 -6.12361,-29.17417 a 0.501152,0.501152 0 0 1 -0.0205,-0.0255 c -16.1524,-21.23566 -43.8345,-29.5188 -69.26543,-33.07449 z m -0.16205,1.37203 a 0.501152,0.501152 0 0 1 0.0207,0.002 c 14.32051,1.86524 29.81621,5.65818 43.13059,12.69115 13.3145,7.03306 24.459,17.3287 29.98035,32.17683 a 0.501152,0.501152 0 0 1 0.016,0.0636 c 3.01,12.7785 -2.19146,23.75949 -10.87501,31.84953 -8.68369,8.09027 -20.84248,13.35779 -31.94753,14.88654 C 153.203,276.44035 113.26616,269.9687 86.0954,245.74903 67.733644,230.85928 69.447227,201.0214 90.598032,189.77481 l 0.04223,-0.0199 c 19.626578,-13.0921 44.518268,-14.0702 67.158178,-12.0664 z"
       id="path4574"
       inkscape:connector-curvature="0"
       inkscape:transform-center-x="-31.600194"
       inkscape:transform-center-y="8.4478815" />
  </g>
</svg>
