<?xml version="1.0" encoding="UTF-8" standalone="no"?>
<!-- Created with Inkscape (http://www.inkscape.org/) -->

<svg
   xmlns:dc="http://purl.org/dc/elements/1.1/"
   xmlns:cc="http://creativecommons.org/ns#"
   xmlns:rdf="http://www.w3.org/1999/02/22-rdf-syntax-ns#"
   xmlns:svg="http://www.w3.org/2000/svg"
   xmlns="http://www.w3.org/2000/svg"
   xmlns:sodipodi="http://sodipodi.sourceforge.net/DTD/sodipodi-0.dtd"
   xmlns:inkscape="http://www.inkscape.org/namespaces/inkscape"
   id="svg2"
   version="1.1"
   inkscape:version="0.91 r13725"
   width="185"
   height="213.75"
   viewBox="0 0 185 213.75"
   sodipodi:docname="texture.svg"
   inkscape:export-filename="/home/lip/code/MinJHex/img/texture.png"
   inkscape:export-xdpi="48.648399"
   inkscape:export-ydpi="48.648399">
  <metadata
     id="metadata8">
    <rdf:RDF>
      <cc:Work
         rdf:about="">
        <dc:format>image/svg+xml</dc:format>
        <dc:type
           rdf:resource="http://purl.org/dc/dcmitype/StillImage" />
        <dc:title />
      </cc:Work>
    </rdf:RDF>
  </metadata>
  <defs
     id="defs6" />
  <sodipodi:namedview
     pagecolor="#ffffff"
     bordercolor="#666666"
     borderopacity="1"
     objecttolerance="10"
     gridtolerance="10"
     guidetolerance="10"
     inkscape:pageopacity="0"
     inkscape:pageshadow="2"
     inkscape:window-width="1366"
     inkscape:window-height="713"
     id="namedview4"
     showgrid="false"
     inkscape:zoom="1.5614241"
     inkscape:cx="12.681221"
     inkscape:cy="92.074413"
     inkscape:window-x="0"
     inkscape:window-y="27"
     inkscape:window-maximized="1"
     inkscape:current-layer="svg2" />
  <g
     id="g4138">
    <path
       style="fill:#000000;fill-opacity:0.07843138"
       d="m 0,211.55837 c 0,-0.91278 1.0691989,-3.1837 2.3759976,-5.04648 7.3557832,-10.48537 24.7171844,-42.64759 23.8120464,-44.11214 -0.557483,-0.90203 -0.531692,-2.54051 0.05731,-3.64108 0.778606,-1.45483 -2.371155,-7.95591 -11.539476,-23.81734 C 7.7701639,122.94234 1.6240011,112.9375 1.0477427,112.70833 -0.37041394,112.14436 -0.28850329,103.29826 1.1486329,101.8125 1.780381,101.15937 7.6610416,91.250625 14.216768,79.793056 22.871546,64.666931 26.214907,57.62835 26.423379,54.095199 26.665767,49.987231 24.891913,46.027952 15.035458,28.677143 8.6141899,17.373464 2.6043298,7.2369584 1.6802127,6.1515741 -1.220212,2.7449978 -0.33067899,0.55231997 4.0625,0.27929266 7.3855567,0.07277131 7.7268382,0.26320241 5.9375,1.3255209 4.734375,2.0398083 3.75,3.1569354 3.75,3.8080255 3.75,6.2749413 29.169491,48.75 30.645834,48.75 c 0.85143,0 2.248305,0.84375 3.104166,1.875 1.292024,1.556792 5.972514,1.875 27.579285,1.875 16.856876,0 26.309421,-0.46316 26.835834,-1.314914 C 88.882849,50.023776 68.445228,12.420135 62.214251,3.4375 60.902784,1.546875 60.291095,0 60.854942,0 c 0.910582,0 7.185869,10.356169 23.960594,39.542404 2.818891,4.904572 5.858659,9.198837 6.755036,9.54281 C 93.506734,49.828189 119.53297,5.5482652 119.09072,2.2636061 118.8304,0.3301579 121.5958,0.14282186 151.90323,0.04079054 184.35696,-0.06846645 185,-0.02137269 185,2.4646844 185,3.859108 184.48069,5 183.84597,5 181.79264,5 154.80616,52.690418 155.63128,54.860917 157.34344,59.364785 182.97704,102.5 183.94135,102.5 c 0.57236,0 0.9534,2.22677 0.84676,4.94838 -0.10662,2.7216 -0.60887,4.69191 -1.11606,4.37845 -0.78758,-0.48676 -16.08851,25.00853 -25.91028,43.17317 l -3.04148,5.625 13.35009,23.125 c 7.34254,12.71875 14.15547,23.74951 15.13984,24.5128 0.98438,0.7633 1.78978,2.32606 1.78978,3.47282 0,1.8972 -2.99321,2.07493 -33.22936,1.97314 -27.47141,-0.0925 -33.11631,-0.40646 -32.57696,-1.81199 0.35881,-0.93506 -3.86872,-9.47873 -9.39451,-18.98595 -5.5258,-9.5072 -11.421131,-19.67645 -13.100734,-22.59832 C 95.018835,167.39062 92.877685,165 91.940325,165 c -1.530732,0 -5.466717,6.34814 -24.219628,39.0625 -3.054249,5.32812 -5.985233,9.6875 -6.513296,9.6875 -0.528062,0 5.486884,-11.03728 13.366548,-24.52726 7.879664,-13.49 14.029178,-25.3025 13.665587,-26.25 -1.01999,-2.65806 -52.27605,-2.51483 -54.489536,0.15226 -0.855861,1.03125 -2.252736,1.875 -3.104166,1.875 -2.445932,0 -27.1406054,43.50959 -26.263377,46.2735 0.5672964,1.78739 0.1429296,2.28537 -1.8214198,2.13741 C 1.1524668,213.3048 0,212.47116 0,211.55837 Z m 180.75539,-0.82242 c 0.37231,-0.97023 -0.69223,-3.92335 -2.36564,-6.5625 -1.67343,-2.63915 -7.95416,-13.37657 -13.9572,-23.86095 l -10.91463,-19.0625 -28.56019,0 c -15.7081,0 -28.836391,0.44691 -29.173975,0.99312 -0.601234,0.97283 3.17101,7.94197 18.238035,33.69438 5.39065,9.21365 8.17183,12.8125 9.90145,12.8125 1.32287,0 2.729,0.84375 3.12472,1.875 1.04053,2.71154 52.66857,2.81819 53.70743,0.111 z M 32.5,158.75 c 0,-0.6875 -0.595698,-1.25 -1.323771,-1.25 -0.728074,0 -0.976128,0.5625 -0.551229,1.25 0.424899,0.6875 1.020595,1.25 1.323771,1.25 C 32.251947,160 32.5,159.4375 32.5,158.75 Z m 55.521125,-0.80505 c 0.509606,-1.32801 -4.167701,-10.61479 -13.220885,-26.25 L 60.790756,107.5 l -27.934609,0 c -23.5034644,0 -28.0471619,0.29331 -28.6441591,1.84906 -1.0797938,2.81389 23.2451441,44.44652 26.7469201,45.77789 1.570336,0.59704 3.182173,1.93772 3.581861,2.97929 C 35.157675,159.71387 39.193139,160 61.25,160 c 22.954221,0 26.07444,-0.23953 26.771125,-2.05505 z m 79.294575,-22.4413 c 7.75975,-13.47299 13.80581,-25.28549 13.4357,-26.25 -1.05393,-2.7465 -51.75658,-2.56629 -53.77284,0.19111 -0.78212,1.06963 -2.40429,2.08893 -3.60481,2.26513 -2.55332,0.37475 -28.332948,44.28672 -27.432614,46.72761 C 96.37901,159.62461 103.32715,160 124.86227,160 l 28.3448,0 14.10863,-24.49635 z m -60.5506,-2.45228 c 7.79818,-13.77081 12.46271,-23.37082 12.586,-25.90305 0.11963,-2.45698 -1.21434,-6.45655 -3.42643,-10.27332 C 113.9324,93.4375 108.23059,83.59375 103.254,75 96.923239,64.067844 93.524619,59.375 91.93816,59.375 c -2.132988,0 -5.017176,4.46603 -23.410466,36.25 -6.749525,11.66331 -6.642698,10.99245 -2.813809,17.67047 17.603459,30.70243 24.606647,41.70124 26.532282,41.67008 1.437984,-0.0233 6.149674,-7.13486 14.518933,-21.91418 z M 125.625,108.75 c 0.4249,-0.6875 0.21004,-1.25 -0.47746,-1.25 -0.6875,0 -1.59764,0.5625 -2.02254,1.25 -0.4249,0.6875 -0.21004,1.25 0.47746,1.25 0.6875,0 1.59764,-0.5625 2.02254,-1.25 z M 74.890126,82.011434 C 83.63831,66.741264 88.490655,57.028626 88.004387,55.761434 87.331059,54.006767 84.079769,53.75 62.534838,53.75 40.52245,53.75 37.513024,53.998684 34.856074,56.037229 33.216482,57.295205 31.03125,58.633376 30,59.010945 27.327954,59.989251 3.3637925,102.19058 4.2172931,104.41477 4.8075462,105.95294 9.4603963,106.25 32.962772,106.25 l 28.041234,0 13.88612,-24.238566 z M 180.73396,104.54178 c 0.36054,-0.93952 -3.37171,-8.673893 -8.29387,-17.187498 -4.92217,-8.513605 -11.28167,-19.551433 -14.13224,-24.528507 L 153.125,53.77655 124.82124,53.763275 c -21.64959,-0.01013 -28.446143,0.357749 -28.909365,1.564884 -0.333078,0.867987 5.236335,11.696112 12.376475,24.0625 9.72408,16.84165 13.76376,22.745761 16.09686,23.526011 1.71314,0.57291 3.11479,1.55729 3.11479,2.1875 0,0.65812 11.1897,1.14583 26.28922,1.14583 21.07432,0 26.41927,-0.33885 26.94474,-1.70822 z M 160.95867,39.6875 C 176.22135,13.681307 181.44771,3.8311703 180.65992,2.5565043 180.14017,1.715527 170.58001,1.25 153.82929,1.25 132.22251,1.25 127.54202,1.568207 126.25,3.125 125.39414,4.15625 123.95974,5 123.06246,5 121.18001,5 94.791986,49.902155 95.756909,51.463434 96.109257,52.033545 109.23191,52.5 124.91837,52.5 l 28.52083,0 7.51947,-12.8125 z M 10.9375,0.36783374 c 1.546875,-0.29794112 4.078125,-0.29794112 5.625,0 1.546875,0.29794112 0.28125,0.54171112 -2.8125,0.54171112 -3.09375,0 -4.359375,-0.24377 -2.8125,-0.54171112 z"
       id="path4142"
       inkscape:connector-curvature="0" />
    <path
       style="fill:#000000;fill-opacity:0.11764706"
       d="m 0,211.40345 c 0,-1.34481 0.51134254,-2.63261 1.1363167,-2.86179 0.6249743,-0.22916 6.6293712,-9.91827 13.3431043,-21.53135 9.680231,-16.74439 12.237601,-22.1776 12.355664,-26.25 C 26.960636,156.42959 25.137165,152.39354 15.19668,135 8.713676,123.65625 2.6422846,113.48696 1.7046998,112.40157 c -2.26914861,-2.62685 -2.17058433,-5.00188 0.1703002,-4.1036 1.0618485,0.40747 1.875,0.029 1.875,-0.87257 0,-0.87563 0.3614066,-1.23066 0.8031259,-0.78894 0.4417192,0.44172 0.1941128,1.53694 -0.5502363,2.43383 -1.4182146,1.70884 -0.1832936,4.10286 18.6950524,36.24221 4.745014,8.07812 9.241744,14.6875 9.992733,14.6875 0.902504,0 0.837859,-0.63569 -0.190675,-1.875 -0.896936,-1.08074 -1.018423,-1.875 -0.286793,-1.875 2.392317,0 2.919645,4.15542 0.781639,6.15942 -1.153357,1.08107 -1.703329,1.26245 -1.222159,0.40308 0.48117,-0.85938 0.419783,-1.55795 -0.136416,-1.55239 -1.048169,0.01 -28.6597894,47.47971 -28.31843,48.68436 0.1060625,0.37429 -0.5970624,1.40583 -1.5625,2.29232 C 0.29714636,213.57572 0,213.43465 0,211.40345 Z M 29.186671,159.33496 C 28.195139,156.75107 27.5,157.05556 27.5,160.07377 c 0,1.41558 0.537934,2.24132 1.195408,1.83497 0.657473,-0.40634 0.878542,-1.56454 0.491263,-2.57378 z m 90.401959,52.10249 C 120.08689,209.47691 92.553832,161.25 90.936283,161.25 c -0.596104,0 -0.736182,0.5625 -0.311283,1.25 0.424899,0.6875 0.237026,1.25 -0.417493,1.25 -0.65452,0 -1.531466,-0.88975 -1.948771,-1.97724 -1.065829,-2.7775 -1.01709,-2.85382 1.428764,-2.23741 1.392234,0.35086 2.681376,-0.48694 3.545981,-2.30453 0.747165,-1.5707 7.103499,-12.64227 14.125189,-24.60348 7.02168,-11.96121 12.47748,-22.50134 12.124,-23.4225 -0.35348,-0.92117 -0.24107,-1.54097 0.24981,-1.37734 0.49089,0.16362 0.89252,-0.265 0.89252,-0.9525 0,-0.6875 -0.40163,-1.11612 -0.89252,-0.95249 -0.49088,0.16362 -0.61177,-0.43411 -0.26863,-1.3283 C 120.00498,103.18405 96.764835,61.404415 93.649867,58.1875 93.01744,57.534375 92.5,55.805942 92.5,54.346539 92.5,51.78417 119.76251,3.3458425 122.70196,0.68558581 123.49843,-0.03523639 122.99096,1.34375 121.57424,3.75 120.15752,6.15625 114.6218,15.71875 109.27264,25 c -5.34916,9.28125 -11.023276,19.125 -12.609139,21.875 -2.937084,5.093114 -4.278655,10.827319 -1.60847,6.875 0.996168,-1.474495 1.192331,-1.206195 0.918359,1.256073 -0.235478,2.116297 4.10796,10.922137 13.40161,27.170277 l 13.75,24.03921 29.0625,0.0172 c 18.55315,0.011 29.0625,-0.43479 29.0625,-1.23278 0,-0.6875 0.46875,-1.25 1.04166,-1.25 0.57293,0 1.04168,0.84375 1.04168,1.875 0,1.61055 -3.92699,1.875 -27.8429,1.875 -18.292,0 -28.12425,0.45523 -28.66309,1.3271 -0.45111,0.72991 -2.10911,1.81715 -3.68444,2.41609 -1.57533,0.59894 -4.51426,4.07987 -6.53096,7.7354 -2.01669,3.65552 -7.5748,13.39641 -12.35135,21.64641 -11.706039,20.21856 -11.810628,19.10101 4.41598,47.1856 7.05007,12.20207 13.35035,21.85677 14.00062,21.45489 1.4363,-0.88769 4.83759,1.74252 4.78479,3.70006 -0.0209,0.7752 -0.61135,0.42507 -1.31212,-0.77805 -1.61267,-2.7688 -4.18317,-2.88025 -3.12999,-0.1357 0.63707,1.66019 0.44722,1.76952 -0.99471,0.57284 -0.98013,-0.81344 -2.02582,-1.03363 -2.32374,-0.48932 -0.29793,0.54433 -0.34869,0.23028 -0.1128,-0.69787 z M 95,160.55122 c 0,-1.07182 -0.571675,-1.59545 -1.27039,-1.16362 -0.698714,0.43182 -0.946768,1.30877 -0.551229,1.94877 C 94.249931,163.07017 95,162.74689 95,160.55122 Z M 125.625,108.75 c 0.4249,-0.6875 -0.10438,-1.25 -1.17623,-1.25 -1.07182,0 -1.94877,0.5625 -1.94877,1.25 0,0.6875 0.5293,1.25 1.17623,1.25 0.64693,0 1.52387,-0.5625 1.94877,-1.25 z m 55.13587,103.22165 c 0.37534,-0.9781 1.47446,-2.08229 2.44249,-2.45375 1.45074,-0.5567 1.49075,-0.24417 0.22766,1.77835 -1.76703,2.82949 -3.68268,3.31404 -2.67015,0.6754 z M 47.877426,160.31734 c 6.738835,-0.22519 17.426335,-0.2242 23.75,0.002 6.323666,0.22638 0.810074,0.41064 -12.252426,0.40944 -13.0625,-0.001 -18.236407,-0.18644 -11.497574,-0.41163 z M 181.88385,110.01432 c -0.43792,-0.70858 0.0639,-0.91814 1.17622,-0.49127 2.16553,0.83099 2.56174,1.72695 0.7637,1.72695 -0.64692,0 -1.5199,-0.55606 -1.93992,-1.23568 z M 0,104.43994 c 0,-0.95239 0.43661409,-1.91911 0.97025352,-2.14827 C 1.503893,102.0625 7.6689961,92.006356 14.670482,79.944679 c 9.435644,-16.255074 12.574477,-22.724709 12.129091,-25 -0.492167,-2.514278 -0.409094,-2.632363 0.459142,-0.652649 0.67488,1.538829 1.370238,1.9151 1.913804,1.035592 C 30.018231,53.95923 3.1343726,6.0099393 1.0720003,5.2083334 0.48240012,4.9791666 0,4.0124456 0,3.0600644 0,0.95270774 3.3128061,1.9869475 3.3832331,4.116291 3.4905667,7.361495 28.735793,49.137894 31.398987,50.477426 c 1.528226,0.768665 2.998973,2.241324 3.268328,3.272574 0.364278,1.394664 0.03404,1.314607 -1.289091,-0.3125 C 31.519575,51.151844 29.306546,50.366696 30.59389,52.449663 31.001677,53.109476 25.034875,64.485269 17.334327,77.7292 9.6337808,90.973131 3.3333334,102.50283 3.3333334,103.35075 c 0,0.84792 -0.75,1.82947 -1.6666668,2.18123 C 0.75,105.88374 0,105.39232 0,104.43994 Z M 87.5,53.863825 c 0,-0.581743 0.75,-1.680158 1.666666,-2.440924 1.257759,-1.043846 1.666668,-0.941255 1.666668,0.418154 0,0.99075 -0.75,2.089165 -1.666668,2.440922 C 88.25,54.633736 87.5,54.445568 87.5,53.863825 Z M 125.41666,1.8200141 C 125.41666,0.81900637 125.88541,0 126.45834,0 127.03125,0 127.5,0.52930294 127.5,1.1762288 c 0,0.6469258 -0.46875,1.4659322 -1.04166,1.8200141 -0.57293,0.354082 -1.04168,-0.1752209 -1.04168,-1.1762288 z M 180.79796,1.875 C 180.40224,0.84375 180.56313,0 181.1555,0 c 0.59236,0 1.4008,0.84375 1.79654,1.875 0.39572,1.03125 0.23483,1.875 -0.35754,1.875 -0.59236,0 -1.4008,-0.84375 -1.79654,-1.875 z"
       id="path4140"
       inkscape:connector-curvature="0" />
  </g>
</svg>
